<?xml version="1.0" encoding="UTF-8"?>
<svg version="1.1" xmlns="http://www.w3.org/2000/svg" width="173" height="214">
<path d="M0 0 C1.23259048 -0.00274933 2.46518097 -0.00549866 3.73512268 -0.0083313 C5.10322668 -0.00125303 6.47132969 0.00601659 7.83943176 0.01345825 C9.27827954 0.01402232 10.7171279 0.01370589 12.15597534 0.01257324 C16.06481421 0.01199856 19.97353075 0.02377151 23.88234115 0.03772116 C27.96628308 0.0502093 32.05022771 0.0513975 36.13418579 0.05377197 C43.86896024 0.05999238 51.60367826 0.07641078 59.33842784 0.09647095 C68.14364239 0.11881251 76.94885961 0.12981899 85.75409544 0.13986182 C103.86826625 0.16077653 121.98238451 0.1959634 140.09651184 0.24050903 C141.1111781 7.02022556 141.28262738 13.63798422 141.28181458 20.47610474 C141.28402462 22.56509087 141.30229353 24.65356752 141.32112122 26.74246216 C141.32305481 28.05795044 141.3249884 29.37343872 141.32698059 30.72879028 C141.33108948 31.93059937 141.33519836 33.13240845 141.33943176 34.37063599 C141.09651184 37.24050903 141.09651184 37.24050903 139.09651184 39.24050903 C136.5546627 39.48660469 136.5546627 39.48660469 133.27531433 39.48101807 C132.03568436 39.4837674 130.79605438 39.48651672 129.51885986 39.48934937 C128.1376791 39.48227062 126.7564993 39.47500099 125.37532043 39.46755981 C123.92676806 39.46699592 122.47821512 39.46731184 121.02966309 39.46844482 C117.08977477 39.46902017 113.15000749 39.45723651 109.21014738 39.44329691 C105.095503 39.43081981 100.98085605 39.42962144 96.86619568 39.42724609 C89.07118103 39.42102242 81.27622228 39.40459964 73.48123229 39.38454711 C64.60832751 39.36221568 55.7354201 39.35120163 46.86249423 39.34115624 C28.60713504 39.32023415 10.35182793 39.28504098 -7.90348816 39.24050903 C-9.2518376 32.95763232 -9.12685491 26.69904958 -9.14372253 20.30130005 C-9.15350318 18.04955117 -9.18459759 15.79868762 -9.21598816 13.54714966 C-9.22251191 12.1181186 -9.22776484 10.68908105 -9.23161316 9.26004028 C-9.24095886 7.96171265 -9.25030457 6.66338501 -9.25993347 5.32571411 C-9.14230652 4.30759644 -9.02467957 3.28947876 -8.90348816 2.24050903 C-5.42459782 -0.07875119 -4.10457973 -0.00704649 0 0 Z " fill="#FEFEFE" transform="translate(22.903488159179688,90.75949096679688)"/>
<path d="M0 0 C49.5 0 99 0 150 0 C150.88299923 4.41499617 151.11545839 8.01994488 151.09765625 12.48828125 C151.09553383 13.5430793 151.09553383 13.5430793 151.09336853 14.6191864 C151.08780109 16.85033544 151.07525475 19.08138164 151.0625 21.3125 C151.05748079 22.83137875 151.05291862 24.35025909 151.04882812 25.86914062 C151.03784236 29.57946012 151.02060034 33.28972001 151 37 C147.60682414 38.02930002 144.51326791 38.12329319 140.97625732 38.12025452 C139.74229218 38.12162918 138.50832703 38.12300385 137.23696899 38.12442017 C135.87249732 38.12088127 134.50802588 38.11724647 133.14355469 38.11352539 C131.70455935 38.11324327 130.26556386 38.11340174 128.8265686 38.1139679 C124.92195871 38.1142549 121.01737951 38.10837371 117.11277676 38.10139394 C113.03150526 38.0951444 108.95023306 38.09455533 104.86895752 38.09336853 C97.14131988 38.09025994 89.41369637 38.08205291 81.68606496 38.07201904 C72.88807624 38.06084325 64.09008685 38.05534375 55.2920928 38.05032361 C37.19472052 38.03986992 19.09736139 38.0222796 1 38 C-1.48499772 25.57501139 0 12.67105187 0 0 Z " fill="#FEFEFE" transform="translate(14,165)"/>
<path d="M0 0 C1.39458939 -0.00422974 1.39458939 -0.00422974 2.81735229 -0.00854492 C4.36122116 -0.00550858 4.36122116 -0.00550858 5.9362793 -0.00241089 C7.01483185 -0.00416321 8.0933844 -0.00591553 9.20462036 -0.00772095 C12.80659555 -0.01215456 16.40852226 -0.00918971 20.01049805 -0.00582886 C22.53076181 -0.00650303 25.05102552 -0.007474 27.57128906 -0.00872803 C32.88794627 -0.01020827 38.20458621 -0.00814177 43.52124023 -0.00338745 C50.23718273 0.00255076 56.953078 -0.0009939 63.66902161 -0.00683975 C90.70208103 -0.02669 117.682864 0.08412001 144.69799805 1.12698364 C144.69799805 13.33698364 144.69799805 25.54698364 144.69799805 38.12698364 C95.19799805 38.12698364 45.69799805 38.12698364 -5.30200195 38.12698364 C-5.30200195 0.0024629 -5.30200195 0.0024629 0 0 Z " fill="#FEFDFD" transform="translate(19.302001953125,17.873016357421875)"/>
<path d="M0 0 C1.23259048 -0.00274933 2.46518097 -0.00549866 3.73512268 -0.0083313 C5.10322668 -0.00125303 6.47132969 0.00601659 7.83943176 0.01345825 C9.27827954 0.01402232 10.7171279 0.01370589 12.15597534 0.01257324 C16.06481421 0.01199856 19.97353075 0.02377151 23.88234115 0.03772116 C27.96628308 0.0502093 32.05022771 0.0513975 36.13418579 0.05377197 C43.86896024 0.05999238 51.60367826 0.07641078 59.33842784 0.09647095 C68.14364239 0.11881251 76.94885961 0.12981899 85.75409544 0.13986182 C103.86826625 0.16077653 121.98238451 0.1959634 140.09651184 0.24050903 C141.1111781 7.02022556 141.28262738 13.63798422 141.28181458 20.47610474 C141.28402462 22.56509087 141.30229353 24.65356752 141.32112122 26.74246216 C141.32305481 28.05795044 141.3249884 29.37343872 141.32698059 30.72879028 C141.33108948 31.93059937 141.33519836 33.13240845 141.33943176 34.37063599 C141.09651184 37.24050903 141.09651184 37.24050903 139.09651184 39.24050903 C136.5546627 39.48660469 136.5546627 39.48660469 133.27531433 39.48101807 C132.03568436 39.4837674 130.79605438 39.48651672 129.51885986 39.48934937 C128.1376791 39.48227062 126.7564993 39.47500099 125.37532043 39.46755981 C123.92676806 39.46699592 122.47821512 39.46731184 121.02966309 39.46844482 C117.08977477 39.46902017 113.15000749 39.45723651 109.21014738 39.44329691 C105.095503 39.43081981 100.98085605 39.42962144 96.86619568 39.42724609 C89.07118103 39.42102242 81.27622228 39.40459964 73.48123229 39.38454711 C64.60832751 39.36221568 55.7354201 39.35120163 46.86249423 39.34115624 C28.60713504 39.32023415 10.35182793 39.28504098 -7.90348816 39.24050903 C-9.2518376 32.95763232 -9.12685491 26.69904958 -9.14372253 20.30130005 C-9.15350318 18.04955117 -9.18459759 15.79868762 -9.21598816 13.54714966 C-9.22251191 12.1181186 -9.22776484 10.68908105 -9.23161316 9.26004028 C-9.24095886 7.96171265 -9.25030457 6.66338501 -9.25993347 5.32571411 C-9.14230652 4.30759644 -9.02467957 3.28947876 -8.90348816 2.24050903 C-5.42459782 -0.07875119 -4.10457973 -0.00704649 0 0 Z M-6.90348816 2.24050903 C-6.90348816 13.79050903 -6.90348816 25.34050903 -6.90348816 37.24050903 C41.27651184 37.24050903 89.45651184 37.24050903 139.09651184 37.24050903 C139.09651184 25.69050903 139.09651184 14.14050903 139.09651184 2.24050903 C90.91651184 2.24050903 42.73651184 2.24050903 -6.90348816 2.24050903 Z " fill="#EFE9E6" transform="translate(22.903488159179688,90.75949096679688)"/>
<path d="M0 0 C0.66 0 1.32 0 2 0 C2 10.23 2 20.46 2 31 C49.52 31 97.04 31 146 31 C145.67 31.66 145.34 32.32 145 33 C97.48 33 49.96 33 1 33 C0.16944608 28.84723038 -0.11674762 25.5677292 -0.09765625 21.38671875 C-0.09443359 20.13955078 -0.09121094 18.89238281 -0.08789062 17.60742188 C-0.07532227 15.66706055 -0.07532227 15.66706055 -0.0625 13.6875 C-0.05798828 12.37458984 -0.05347656 11.06167969 -0.04882812 9.70898438 C-0.03705949 6.4726099 -0.0206176 3.23632822 0 0 Z " fill="#FDF5F4" transform="translate(14,170)"/>
<path d="M0 0 C0.66 0 1.32 0 2 0 C2 10.23 2 20.46 2 31 C3.65 31 5.3 31 7 31 C6.67 31.66 6.34 32.32 6 33 C4.35 33 2.7 33 1 33 C0.06912091 29.06711636 -0.11608885 25.42345837 -0.09765625 21.38671875 C-0.09443359 20.13955078 -0.09121094 18.89238281 -0.08789062 17.60742188 C-0.07532227 15.66706055 -0.07532227 15.66706055 -0.0625 13.6875 C-0.05798828 12.37458984 -0.05347656 11.06167969 -0.04882812 9.70898438 C-0.03705949 6.4726099 -0.0206176 3.23632822 0 0 Z " fill="#FAF2EE" transform="translate(14,170)"/>
<path d="M0 0 C0.66 0 1.32 0 2 0 C2 1.32 2 2.64 2 4 C3.65 4 5.3 4 7 4 C6.67 4.66 6.34 5.32 6 6 C4.35 6 2.7 6 1 6 C0 1.125 0 1.125 0 0 Z " fill="#F7E9E5" transform="translate(14,197)"/>
</svg>
