<svg xmlns="http://www.w3.org/2000/svg" viewBox="230 670 1940 460"><path fill="#fdfcfc" d="M1787.856 680.886h2.78c3.04 0 6.08.009 9.122.016l6.314.005q8.32.006 16.64.024 8.485.014 16.972.02 16.657.016 33.316.049c2.46 4.77 2.272 9.203 2.234 14.433l.003 2.893c0 3.201-.013 6.403-.026 9.604l-.004 6.885q-.005 7.42-.026 14.84c-.022 7.835-.03 15.67-.037 23.506q-.015 16.5-.048 33.003l-.004 2.115-.005 2.117-.008 4.24-.004 2.123q-.022 11.625-.04 23.252l-.004 2.1q-.026 17.406-.044 34.813-.013 11.66-.04 23.319-.016 7.295-.024 14.589-.004 3.354-.015 6.71c-.042 13.19.236 26.294 1.092 39.458l2.723-3.561 1.532-2.004 3.357-4.39q4.358-5.7 8.724-11.397c9.14-11.925 18.194-23.91 27.081-36.025 4.769-6.5 9.566-12.929 14.661-19.178 3.759-4.782 7.216-9.789 10.726-14.755 4.17-5.892 8.374-11.727 12.946-17.315 3.57-4.402 6.824-8.978 10.063-13.625a344 344 0 0 1 13.048-17.522c7.438-9.346 14.496-18.982 21.56-28.612 4.794-6.532 9.604-13.014 14.72-19.3 5.034-6.272 9.809-12.748 14.359-19.379 2.45-3.543 5.054-6.877 7.813-10.187 5.733-6.91 10.839-14.236 15.974-21.594q1.288-1.845 2.582-3.684 1.762-2.508 3.514-5.023l1.267-1.636c1.423-1.836 1.423-1.836 2.653-4.086 2.303-3.41 4.5-6.153 8.633-7.232 5.99-.805 12.033-.551 18.06-.41q2.939.023 5.878.032c5.138.029 10.273.112 15.41.207 5.246.085 10.492.113 15.737.149 7.639.063 15.277.139 22.914.27l2.445.033c5.504.108 5.504.108 6.62 1.224.792 4.513 1.125 8.866 1.126 13.442l.008 3.815-.007 4.154.005 4.444q.005 6.097-.001 12.193c-.003 4.389.001 8.778.004 13.167q.005 12.912 0 25.825-.003 10.536-.001 21.072v3.037l.001 6.11q.004 28.686-.006 57.373-.006 24.44.001 48.88a128094 128094 0 0 1 .004 63.086v3.045q-.002 10.447.002 20.895c.022 71.943.022 71.943-.582 105.731l-.059 3.47q-.083 4.676-.183 9.35l-.05 2.742c-.146 6.053-.146 6.053-1.262 7.169-2.876.1-5.727.136-8.603.13l-2.735.005q-4.499.004-8.998-.002l-6.23.003q-6.54.002-13.079-.006-8.392-.006-16.783.004-6.436.005-12.873 0l-6.19.002q-4.323.003-8.647-.007l-2.598.007c-3.34-.012-6.073-.072-9.264-1.136-.987-2.962-1.121-4.86-1.114-7.947v-3.107l.016-3.42.005-3.621q.005-3.932.018-7.864.019-6.357.025-12.716.012-9.16.032-18.319c.032-16.049.044-32.098.05-48.147v-2.458c.011-34.073-.2-68.142-.532-102.214l-.036-3.765q-.215-22.212-.464-44.422c-.4.55-.802 1.099-1.215 1.665q-2.75 3.764-5.508 7.522l-1.91 2.62c-3.108 4.233-6.213 8.35-9.804 12.193-3.383 3.638-5.853 7.535-8.442 11.762-2.729 4.166-5.713 8.102-8.746 12.05l-1.669 2.174c-2.388 3.09-4.797 6.147-7.32 9.127-2.47 2.99-4.727 6.087-6.948 9.262-7.52 10.62-15.289 21.029-23.5 31.125-4.657 5.73-8.877 11.666-12.998 17.79-3.357 4.955-6.995 9.576-10.842 14.163-4.122 5.004-7.806 10.333-11.568 15.609-5.963 8.352-11.93 16.598-18.514 24.473-2.659 3.251-5.081 6.647-7.528 10.059-3.371 4.656-6.876 9.211-10.363 13.781l-2.121 2.78a3040 3040 0 0 1-10.282 13.389c-5.368 6.946-10.562 14.005-15.644 21.163-5.048 7.058-10.47 13.678-16.078 20.293l-2.117 3.132c-2.346 2.792-2.878 2.867-6.774 3.603q-2.315.033-4.631-.022l-2.564.012c-2.789.006-5.575-.03-8.363-.069q-2.908-.01-5.816-.011-6.086-.015-12.173-.083c-5.209-.056-10.417-.078-15.627-.087-4-.008-8-.028-12-.052q-2.882-.016-5.764-.028-4.02-.023-8.037-.073l-2.42-.007c-5.485-.086-5.485-.086-7.714-2.315-.248-2.986-.248-2.986-.246-6.915l-.007-2.191c-.005-2.449.004-4.897.012-7.345q0-2.644-.005-5.29c-.004-4.863.004-9.727.014-14.591.008-5.238.006-10.476.004-15.714q-.001-13.622.017-27.244c.016-13.13.021-26.26.024-39.391q.007-31.953.036-63.904.028-31.046.041-62.09l.002-3.864.007-19.187q.032-79.637.101-159.274c3.361-1.68 7.16-1.129 10.856-1.114"/><path fill="#fcfcfb" d="m248.855 680.746 2.451-.01c2.722-.007 5.443-.001 8.165.005l5.845-.01c5.307-.01 10.614-.006 15.922 0 5.572.005 11.143 0 16.715-.002q14.074-.005 28.149.01 16.179.015 32.358-.003 13.935-.013 27.871-.006a9397 9397 0 0 0 16.602-.003c49.694-.051 101.99 1.015 146.067 27.273l3.297 1.844C573.832 722.139 593.969 738.186 609 758l2.48 3.11c9.579 12.045 16.894 25.044 23.52 38.89l1.437 2.969C639.808 810.13 642.5 817.493 645 825l1.062 3.16C663.797 885.174 656.535 950.206 630 1003c-3.014 5.545-6.392 10.825-10 16l-1.164 1.669c-4.512 6.385-9.435 12.306-14.738 18.046-1.826 1.99-3.558 4.024-5.286 6.098C580.66 1065.453 556.29 1081.51 531 1092l-3.402 1.445c-17.53 7.165-36.317 11.184-54.91 14.43l-3.517.615c-14.857 2.46-29.568 2.653-44.579 2.624h-6.065q-8.171-.001-16.342-.013c-5.708-.006-11.416-.006-17.124-.008q-16.187-.005-32.373-.021-18.438-.015-36.878-.022-37.905-.016-75.81-.05c-1.613-4.974-2.25-9.15-2.254-14.43l-.01-2.177c-.008-2.402-.003-4.803.003-7.204l-.011-5.224c-.01-4.78-.008-9.56-.004-14.34.002-5.157-.007-10.314-.014-15.471a20272 20272 0 0 1-.012-30.297q.002-12.306-.005-24.612l-.001-3.536-.004-7.111q-.013-33.344-.003-66.689c.006-20.358-.006-40.716-.025-61.074q-.03-31.335-.024-62.669c.002-11.733 0-23.467-.014-35.201q-.019-14.976-.002-29.952.011-7.647-.005-15.294-.014-6.99.007-13.98.004-2.537-.008-5.076c-.01-2.287-.002-4.574.011-6.862v-3.861L238 683c3.716-2.477 6.555-2.28 10.855-2.254M339 767v258c61.336 4.075 61.336 4.075 130.062-5.625l3.083-1.064c8.694-3.084 16.818-6.805 24.855-11.311l2.785-1.426c20.906-11.698 34.65-33.038 43.42-54.616a241 241 0 0 1 2.037-4.84c3.62-8.952 5.088-18.648 6.758-28.118l.598-3.281c1.82-16.82 1.057-34.208-2.598-50.719l-.488-2.303c-4.667-21.5-13.015-42.064-29.157-57.4-2.062-2.01-3.818-4.047-5.605-6.297-17.069-19.688-47.074-27.916-71.75-31zm1256.741-85.588c1.996.52 4.006.988 6.017 1.447 21.663 5.138 43.421 14.768 61.242 28.141l2.926 2.156A803 803 0 0 1 1675 720l2.668 2.035c8.888 6.932 18.542 15.163 24.332 24.965-.404 3.157-1.416 4.787-3.66 6.988l-1.658 1.643-1.745 1.681-1.662 1.647a172 172 0 0 1-8.928 8.175c-4.742 4.136-9.103 8.603-13.484 13.116q-2.591 2.64-5.185 5.277-4.052 4.123-8.078 8.27a1340 1340 0 0 1-7.862 8.015l-2.43 2.535-2.287 2.298-1.993 2.042C1641 810 1641 810 1638.354 809.792c-2.623-.882-3.719-1.748-5.561-3.784l-1.752-1.871-1.854-2.012c-7.36-7.653-15.148-13.597-24.187-19.125l-1.745-1.095c-15.484-9.573-35.032-16.857-53.255-17.905l-4.684-.355c-34.529-2.382-67.576 5.924-95.316 27.355l-2.496 1.879c-2.632 2.23-4.667 4.55-6.817 7.246l-2.347 2.93L1436 806l-2.184 2.695c-1.958 2.422-3.91 4.842-5.816 7.305l-2.422 3.102c-3.288 4.655-5.409 9.776-7.578 15.023l-1.32 3.187c-4.026 10.03-6.65 20.094-8.68 30.688l-.738 3.434c-5.972 32.539-.144 71.678 17.3 100.113 1.402 1.904 2.882 3.674 4.438 5.453a2330 2330 0 0 1 3.812 4.875c20.768 25.752 48.352 42.473 81.493 46.738 30 2.976 57.283-1.115 84.01-14.866C1600 1013 1600 1013 1602 1013l.013-1.918q.155-23.07.326-46.142.085-11.156.158-22.313.065-9.72.14-19.442.04-5.15.072-10.3.036-5.74.086-11.48l.017-3.475.03-3.14.02-2.746C1603 890 1603 890 1604 889c2.79-.106 5.554-.147 8.344-.145l2.65-.01q4.36-.013 8.72-.013l6.036-.01q6.333-.009 12.668-.007c5.422 0 10.844-.014 16.266-.031q6.234-.015 12.469-.013 3 0 5.998-.013c2.792-.01 5.584-.007 8.376 0 1.25-.01 1.25-.01 2.524-.018 5.72.032 5.72.032 7.949 2.26.254 2.871.254 2.871.26 6.623.005.688.008 1.376.012 2.086.01 2.317.007 4.635.003 6.952l.015 4.972c.014 4.51.014 9.02.012 13.531q0 5.644.008 11.287.016 13.315.006 26.63c-.006 9.161.006 18.322.027 27.484q.026 11.79.02 23.58c-.001 4.696.001 9.393.015 14.09q.019 6.627-.002 13.254-.004 2.433.009 4.865c.01 2.215.002 4.428-.01 6.642v3.755c-.534 4.632-2.152 7.198-5.652 10.206l-2.66 1.855-2.973 2.083L1682 1073l-2.934 2.012A615 615 0 0 1 1670 1081l-2.875 1.93c-24.405 15.825-55.45 26.366-84.125 31.07l-2.539.42c-15.957 2.57-31.788 3.816-47.961 3.83l-2.137.002c-28.233-.042-55.766-3.509-82.363-13.252l-3.77-1.332c-15.859-5.685-32.424-11.943-45.644-22.617-2.75-2.182-5.602-4.106-8.524-6.051-18.879-12.87-35.229-29.433-47.546-48.688a138 138 0 0 0-3.594-5.187c-10.438-14.485-17.06-30.324-22.922-47.125l-1.064-3.041c-7.704-22.411-11.602-45.26-11.936-68.959l-.04-2.727c-.297-39.222 8.499-76.227 26.04-111.273l1.574-3.227c3.15-6.128 7.052-11.514 11.278-16.949 2.18-2.866 4.155-5.825 6.148-8.824a249 249 0 0 1 3.562-4.625c1.727-2.191 3.43-4.362 5.028-6.648L1358 746h2l.625-1.688c1.55-2.607 3.46-4.112 5.82-5.976 1.787-1.45 1.787-1.45 3.742-4.086 6.572-8.188 16.278-14.274 24.813-20.25l1.687-1.192c9.355-6.575 18.92-12.049 29.313-16.808l2.17-1.007c13.216-6.07 26.8-10.239 40.83-13.993l2.319-.64c39.597-10.866 84.981-9.413 124.422 1.052m-448.701-.526h2.838c3.106 0 6.211.009 9.317.016l6.449.005q8.497.006 16.995.024 8.667.014 17.334.02 17.014.016 34.027.049c2.015 3.354 2.25 5.901 2.249 9.786l.014 3.603-.016 3.964q.002 2.105.008 4.21c.006 3.864 0 7.727-.008 11.59-.007 4.169-.002 8.337.002 12.505q.006 12.283-.01 24.565c-.01 9.6-.01 19.202-.01 28.803q-.001 25.829-.023 51.656-.021 24.82-.02 49.64v6.111q0 28.472-.015 56.942l-.004 17.067c-.003 38.267-.087 76.531-.584 114.796l-.09 7.302q-.068 5.635-.153 11.27-.03 2.06-.054 4.12-.036 2.795-.083 5.588l-.046 3.156C1235 1110 1235 1110 1234 1111c-2.972.1-5.921.136-8.894.13l-2.828.005q-4.653.004-9.305-.002-3.22 0-6.439.003-6.757.002-13.515-.006-8.677-.006-17.356.004-6.65.005-13.303 0l-6.4.002q-4.469.003-8.936-.007l-2.694.007c-6.101-.022-6.101-.022-8.33-1.136a702810 702810 0 0 1-.482-180.933l-.01-3.839q-.08-30.803-.167-61.605-.089-31.589-.166-63.177a74634 74634 0 0 0-.106-39.007q-.039-13.36-.069-26.721-.016-7.718-.042-15.434-.024-7.057-.035-14.116-.005-2.56-.016-5.12-.014-3.467-.014-6.934l-.01-3.899c.096-2.63.18-4.765 1.117-7.215 3.405-1.703 7.294-1.129 11.04-1.114M715 1025a158436 158436 0 0 1 148.09-.165l3.142-.002c16.808-.013 33.615-.037 50.423-.064q25.854-.042 51.708-.051 15.964-.005 31.927-.042 10.935-.023 21.87-.017c4.211.002 8.422 0 12.633-.017q5.777-.02 11.553-.005 2.096.003 4.191-.012c1.892-.012 3.783-.003 5.675.006l3.19-.004c2.598.373 2.598.373 4.436 1.682 1.962 2.856 1.569 6.092 1.534 9.435l.011 2.386a884 884 0 0 1-.02 7.811l.002 5.421q0 5.68-.029 11.361a2364 2364 0 0 0-.016 14.585q.002 5.596-.013 11.192-.006 2.69-.004 5.38-.002 3.752-.028 7.505l.007 2.26c-.053 5.126-.053 5.126-2.282 7.355-2.48.248-2.48.248-5.68.246l-3.686.012-4.086-.017q-2.155 0-4.311.005c-3.964.004-7.927-.004-11.89-.014-4.269-.008-8.537-.006-12.806-.004q-11.1.001-22.2-.017c-10.7-.016-21.4-.021-32.1-.024a62241 62241 0 0 1-52.074-.036q-25.298-.028-50.595-.041l-3.149-.002-15.635-.007q-64.894-.033-129.788-.101c-1.668-4.71-2.253-8.47-2.259-13.487l-.01-2.195c-.01-2.378-.003-4.756.003-7.134l-.005-4.983q-.005-5.211.01-10.422c.012-4.448.005-8.895-.007-13.343q-.009-5.14 0-10.282.003-2.46-.005-4.919a986 986 0 0 1 .014-6.878l.005-3.949c.245-3.29.966-5.415 2.254-8.408m2.445-344.25 3.152.001 3.63-.014 4.022.016 4.245-.008c3.902-.006 7.805 0 11.707.008 4.203.007 8.406.002 12.61-.002q12.36-.006 24.718.01c9.586.01 19.173.01 28.76.01q25.649.001 51.297.023 24.915.021 49.828.02h6.193q28.327 0 56.653.015 10.034.004 20.067.004 12.22 0 24.441.014 6.24.008 12.48.007 5.706-.002 11.41.01h4.143q2.801-.002 5.602.007l3.152.003C1058 681 1058 681 1060 682c1.173 3.52 1.14 6.685 1.13 10.345l.005 2.258q.004 3.697-.002 7.393 0 2.569.003 5.138.002 5.385-.006 10.77-.006 6.903.004 13.804.005 5.305 0 10.611l.002 5.09q.003 3.558-.007 7.116l.007 2.124c-.015 3.293-.265 6.184-1.136 9.351-37.343.93-74.672 1.152-112.024 1.135a26660 26660 0 0 0-23.706 0q-22.395.004-44.789-.006-19.177-.005-38.356.001a79708 79708 0 0 1-52.034.003q-8.247 0-16.494.003-10.007.005-20.014-.003-5.096-.005-10.193 0-5.52.002-11.04-.006l-3.25.007c-9.876-.026-9.876-.026-14.1-1.134-1.532-3.063-1.147-6.27-1.145-9.63l-.01-2.386q-.013-3.914-.013-7.828l-.01-5.425a6554 6554 0 0 1-.007-11.379c0-4.87-.014-9.739-.031-14.608q-.015-5.602-.013-11.205 0-2.694-.013-5.388c-.01-2.507-.007-5.013 0-7.52-.007-.747-.012-1.494-.018-2.264.044-7.14.044-7.14 4.705-7.617M715 853c2.452-.376 2.452-.376 5.613-.378l3.64-.023 4.034.02q2.128-.005 4.257-.014c3.914-.013 7.828-.006 11.742.003 4.215.007 8.43-.004 12.646-.012 8.263-.013 16.527-.01 24.79-.002q10.07.01 20.14.005l2.891-.002q2.906 0 5.813-.003c18.186-.008 36.373.002 54.56.018q23.43.018 46.86-.003a38994 38994 0 0 1 60.152-.01l2.878.001q10.064.003 20.126-.009 12.257-.013 24.512.01 6.26.013 12.517.001 5.722-.013 11.443.012 2.078.005 4.155-.006c1.873-.009 3.745.002 5.618.014l3.161.002L1059 853c2.41 3.614 2.29 6.246 2.275 10.421l.015 2.283c.014 2.492.013 4.984.01 7.476l.014 5.197q.01 5.45.002 10.9c-.006 4.653.01 9.305.034 13.958.015 3.58.016 7.158.013 10.737q0 2.572.015 5.146c.013 2.4.006 4.8-.006 7.202l.023 2.141c-.046 4.393-.667 7.082-3.395 10.539-2.533.623-2.533.623-5.631.62l-3.575.035-3.946-.04q-2.089.005-4.178.017c-3.835.015-7.67-.001-11.506-.022-4.133-.018-8.266-.006-12.399.001-8.1.011-16.202-.005-24.303-.03-9.43-.028-18.86-.03-28.29-.03-16.826 0-33.652-.025-50.478-.064q-24.499-.057-48.997-.061l-3.047-.001-9.103-.002h-3.02c-15.555-.004-31.109-.022-46.663-.042q-8.46-.01-16.92-.015-13.424-.006-26.847-.041-6.135-.019-12.27-.02-5.614 0-11.23-.024c-1.997-.007-3.993-.003-5.99 0l-3.598-.02-3.1-.007c-3.25-.284-5.897-1.011-8.909-2.254-1.507-3.014-1.147-6.125-1.145-9.431l-.01-2.322q-.013-3.81-.013-7.618l-.01-5.284q-.009-5.541-.007-11.084c0-4.739-.014-9.478-.031-14.217q-.015-5.458-.013-10.915 0-2.621-.013-5.242c-.01-2.442-.007-4.884 0-7.326-.007-.725-.012-1.45-.018-2.197.023-3.682.159-5.212 2.26-8.364"/><path fill="#f3ebe8" d="M715 853h236v1c-5.016 1.018-9.786 1.119-14.875 1.063l-2.375-.014q-2.875-.02-5.75-.049v3h-11l1-2h-72v2h-5l1-2h-3v2h-5v-2h-13v2h-10l2-2-98-2z"/><path fill="#e6d5de" d="M1873 682c2.25 4.5 2.25 4.5 2.243 8.125l.01 2.48-.02 2.708.004 2.89c0 3.204-.013 6.409-.026 9.614l-.004 6.884q-.005 7.424-.026 14.847c-.022 7.84-.03 15.68-.037 23.52q-.015 16.51-.048 33.02l-.004 2.117-.005 2.12-.008 4.243-.004 2.124a58133 58133 0 0 0-.088 60.191q-.012 11.666-.04 23.332-.016 7.299-.024 14.598a4045 4045 0 0 1-.015 6.715c-.041 13.195.236 26.303 1.092 39.472l2-1c-.812 2.438-.812 2.438-2 5l-3 1z"/><path fill="#cec1c4" d="M533 819c3.95 3.404 5.815 7.161 7.938 11.813l1.053 2.298C550.028 850.98 554.321 870.387 555 890l.191 3.32c1.07 33.075-8.998 67.744-31.191 92.68-4.564 4.769-9.273 9.393-14 14l-2-1 1.402-1.323c14.925-14.193 25.048-27.638 32.802-46.719.66-1.622 1.345-3.233 2.038-4.84 3.62-8.952 5.088-18.648 6.758-28.118l.598-3.281c1.82-16.82 1.057-34.208-2.598-50.719l-.488-2.303c-2.72-12.533-7.3-23.964-12.584-35.622A144 144 0 0 1 533 819"/><path fill="#dad2d5" d="m2038 880 1 2c-6.412 9.223-12.838 18.34-20 27-2.994 3.664-5.777 7.445-8.5 11.313a779 779 0 0 1-11.812 16.187l-1.489 1.993A252 252 0 0 1 1988 950c0-3.908 1.23-4.934 3.625-8q1.226-1.59 2.45-3.184l1.387-1.8c3.042-3.989 6.003-8.038 8.976-12.078l1.863-2.526 1.758-2.385 1.572-2.133c1.16-1.605 2.27-3.246 3.369-4.894h-2l-1 2h-3l1-3h4v-2h-2l-1-4 2.375-.375c2.766-.416 2.766-.416 4.625-2.625 2.125.375 2.125.375 4 1 6.135-7.907 12.165-15.867 18-24"/><path fill="#ece2de" d="M715 853h118v2l-12 1v2h-10l2-2-98-2z"/><path fill="#e8e6e3" d="m1378 731 2 2-4 1zm-3 3 2 3c-2.125 3.188-3.665 4.25-7 6h-2l-4 7-4-1-2 3 1.5 1.875C1361 756 1361 756 1361 758q-3.5.062-7 0l-1-1-7 8-1-2q2.123-2.845 4.25-5.687l2.39-3.2c.78-1.027 1.558-2.054 2.36-3.113l2.172-2.895L1358 746h2l.625-1.687c1.925-3.238 4.414-4.995 7.375-7.313l1 2h2l.875-1.937C1373 735 1373 735 1375 734"/><path fill="#edeae7" d="m607 1028 2 1c-1.24 6.737-4.472 10.305-9.187 15.125l-1.963 2.09c-3.99 4.168-8.05 7.585-12.85 10.785v-2h-2l1-3q.547-2.09 1.063-4.187L586 1044l2 4 1.813-1.937C592 1044 592 1044 595 1043l1-3 2-1 1-3 2-1v-2h2v-2l3 1z"/><path fill="#ded4d6" d="M1504 758h12l1 2h-6l-1 2 3 2-2.543.375c-16.793 2.88-32.17 9.47-46.988 17.742-2.798 1.519-5.486 2.793-8.469 3.883 3.757-4.16 7.396-6.547 12.438-8.937l2.112-1.028c8.616-4.149 17.338-8.107 26.45-11.035l-2-3h2l1-3 2.375.5c2.507.562 2.507.562 4.625.5z"/><path fill="#c4b3b8" d="m1701 747 1 3q-3.245 3.285-6.5 6.563l-1.82 1.845-1.836 1.846-1.65 1.666c-1.91 1.81-3.86 3.524-5.852 5.238-4.762 4.146-9.206 8.58-13.655 13.057l-2.588 2.593q-4.052 4.061-8.099 8.13l-5.527 5.54Q1647.732 803.236 1641 810l-2-1q9.176-9.21 18.36-18.413 4.268-4.273 8.529-8.551a7677 7677 0 0 1 8.247-8.267q1.566-1.568 3.129-3.14c5.193-5.219 10.393-10.372 16.04-15.106 2.878-2.585 5.252-5.53 7.695-8.523"/><path fill="#f2f1ee" d="M614 766c3.788 3.538 6.45 7.009 9.125 11.5l2.008 3.344L627 784l1.805 2.719L630 789l-1 3-1-1 1 5c-1.875-.125-1.875-.125-4-1-1.312-2.937-1.312-2.937-2-6l1-2-2-1a156 156 0 0 1-2-5l-2-3-1 2h-2l-1-5h2c-.486-3.123-.999-5.996-2-9"/><path fill="#f6f8f3" d="m2024.824 746.61 2.176.39c-.25 1.875-.25 1.875-1 4-2.062 1.25-2.062 1.25-4 2l1.188 2.188c.812 2.812.812 2.812-.438 5.437L2021 763l-2 3-6-1 2-4c-1.968 0-3.505 1.843-5 3 1.747-3.942 4.248-7.313 6.813-10.75l1.29-1.824c3.25-4.337 3.25-4.337 6.721-4.817"/><path fill="#faf9f9" d="m1977 954 1.875 1.063L1981 956l2-1c-1.989 4.133-4.466 7.792-7.062 11.563l-1.473 2.138c-11.277 16.205-11.277 16.205-15.465 18.299 1.354-2.922 2.928-5.302 4.938-7.812 4.613-6.087 6.404-11.681 7.062-19.188l7-2z"/><path fill="#c5b8b9" d="M547 940c2.324 6.971-4.177 16.602-7.187 22.938C532.237 977.586 521.896 988.68 510 1000l-2-1 1.402-1.323c14.914-14.182 24.816-27.506 32.68-46.489 1.577-3.756 3.25-7.47 4.918-11.188"/><path fill="#ecebe9" d="m1955 836 5 2-2 1v5l-3 1-2 3h-2l2 4-5-2v3h2l-1 3h-5c-2.15.95-2.15.95-4 2 3.723-7.981 9.162-15.432 15-22"/><path fill="#e0dbdb" d="M1340 771c0 3.642-1.023 5.004-2.937 8.063-2.14 3.408-2.14 3.408-4.063 6.937l2 2c-.55 3.41-1.29 6.381-3.937 8.688C1329 798 1329 798 1327 798l-.812 1.75c-1.205 2.283-2.596 4.224-4.188 6.25.941-5.563 3.218-10.187 5.625-15.25l1.254-2.738c2.998-6.334 6.605-11.66 11.121-17.012"/><path fill="#f5f5f2" d="M533.25 981.938 535 984c-1.937.563-1.937.563-4 1l-1-1c-2.062 1.812-2.062 1.812-4 4v3l-3 2v3h-4c-1.118 2.118-1.118 2.118-2 5h-2c-.867-2.61-.867-2.61-1-6 1.595-2.468 3.69-4.305 5.875-6.25 4.062-3.48 4.062-3.48 7.125-7.75 3.043-1.469 3.631-1.317 6.25.938"/><path fill="#e9e6e7" d="M1902.313 913.313 1904 914l-2 2v3c-6.75 4-6.75 4-9 4l-.625 2.75c-1.722 4.07-3.606 5.064-7.375 7.25a242 242 0 0 0-4 3c2.094-4.423 4.9-8.15 7.813-12.062.52-.72 1.042-1.44 1.58-2.182 6.794-9.136 6.794-9.136 11.92-8.443"/><path fill="#eeefec" d="m1939 858 4 1 1 5h-4l-1.375 3.25c-1.126 2.63-2.304 5.21-3.625 7.75h-4l-1-2-3 2c1.745-4.052 4.423-7.306 7.125-10.75l1.418-1.824q1.726-2.216 3.457-4.426"/><path fill="#f2ebea" d="m734 762 2.676.254c7.601.645 14.758.75 22.324-.254-.375 1.938-.375 1.938-1 4-3.173 1.586-6.588 1.12-10.07 1.098l-2.413-.005c-2.547-.005-5.095-.018-7.642-.03q-2.587-.008-5.176-.014A5665 5665 0 0 1 720 767v-1l24-1-11-1z"/><path fill="#dfd9d7" d="M1399 1080c4.776 1.642 8.794 4.265 13 7l1-2h7l3 9c-5.004-.579-8.825-2.865-13.125-5.312l-2.168-1.186c-3.677-2.072-6.501-3.766-8.707-7.502"/><path fill="#e8e4e4" d="m1592 771 6 1v2l7 1 .438 2.313c.525 2.769.525 2.769 1.562 5.687-3.896-1.489-7.591-3.244-11.312-5.125l-3.239-1.633L1590 775z"/><path fill="#f5f6f2" d="M1995 790v4h-2l-.937 2.875C1991 800 1991 800 1990 802h-5l.625 1.875L1986 806l-2 2c-2.125-.375-2.125-.375-4-1h2v-3h-2c1.443-3.366 3.333-5.51 6-8v2l2 1 .813-2.812C1991.118 790 1991.118 790 1995 790"/><path fill="#c0b5ba" d="M502 787c11.17 3.615 23.35 18.225 29.871 27.727L533 817l-1 2-1.25-1.687c-3.762-4.972-7.7-9.415-12.246-13.684C517 802 517 802 517 800l-1.687-.687c-2.96-1.68-4.937-3.88-7.313-6.313a197 197 0 0 0-3.312-2.75L502 788z"/><path fill="#fdf2f3" d="m1018 761 3 1v2l38 1v1h-57v-1l2.738-.113 3.574-.2 3.551-.175c3.235-.528 4.224-.936 6.137-3.512"/><path fill="#f4f3f0" d="M637 977c2 3 2 3 1.813 5.25-1.006 3.405-2.353 6.514-3.813 9.75h-3l-2 1c-.75-1.75-.75-1.75-1-4a91 91 0 0 1 4-4c.714-2.103.714-2.103 1-4l1-1-1-2z"/><path fill="#eceae9" d="M1313 961c2 2 2 2 2 5 2.49.687 4.379 1 7 1q-.426 2.409-.875 4.813l-.492 2.707C1320 977 1320 977 1318 980a2224 2224 0 0 1-2.5-7.812l-.723-2.237c-.976-3.084-1.777-5.696-1.777-8.951"/><path fill="#f5f4f3" d="M1969 964c1.102 1.75 1.102 1.75 2 4-1.665 6.177-5.8 10.534-11 14v-5h3v-5h-2l1-2 2 1v-2l4-1z"/><path fill="#f2f4ee" d="M1610 1010v5h-2l-1 2c-5.222 2-5.222 2-8 2l-1 2-1-3 6-3v-2l5-1-2-1c2-1 2-1 4-1m-15 9 2 1c-5.75 5-5.75 5-8 5 1.015-2.536 1.685-3.794 4-5.312z"/><path fill="#dfdad5" d="M614 766c3.796 3.55 6.68 7.23 9.375 11.688.367.58.735 1.16 1.113 1.76.906 1.477 1.718 3.012 2.512 4.552l-1 2-.988-1.496-1.324-1.942-1.301-1.933c-1.39-1.918-1.39-1.918-4.387-2.629l-1 2h-2l-1-5h2c-.486-3.123-.999-5.996-2-9"/><path fill="#c6b8bd" d="m2038 880 1 2c-18.116 26.058-18.116 26.058-22 28 1.314-3.727 2.895-6.362 5.438-9.375 3.681-4.475 7.15-9.069 10.562-13.75l1.494-2.048A3348 3348 0 0 0 2038 880"/><path fill="#e4e3e0" d="M2062 693v5h2v2h-2v2c-2.375 2.625-2.375 2.625-5 5h-2v2l-4 1c1.471-4.357 3.83-7.72 6.625-11.312l1.273-1.667A817 817 0 0 1 2062 693"/><path fill="#ddd9d9" d="m1346 1030 1.813 1.063c2.295 1.27 2.295 1.27 5.187-.063l.813 1.813c1.172 2.16 2.38 3.545 4.187 5.187l-1 3v-2h-2l3 4-1 2a2337 2337 0 0 1-3.812-4.25l-2.145-2.39c-5.043-5.825-5.043-5.825-5.043-8.36"/><path fill="#c4b6bb" d="m1952 995 1 2q-3.023 4.256-6.062 8.5l-1.702 2.398A167 167 0 0 1 1933 1023c0-4.037 2.014-5.931 4.438-8.937l2.738-3.477 1.416-1.79c2.223-2.836 4.38-5.72 6.533-8.609l2.258-3.019z"/><path fill="#c2b3b9" d="M1979 959c0 3.379-.484 4.06-2.379 6.73l-1.534 2.175-1.65 2.283-1.653 2.316c-3.66 5.077-7.436 9.98-11.784 14.496 0-3.8 1.087-4.775 3.395-7.746l2.146-2.787 2.272-2.904 2.236-2.893q2.065-2.672 4.142-5.336A417 417 0 0 0 1979 959"/><path fill="#ccc4c4" d="m1395 714 2 1-2.352 1.766c-8.498 6.432-16.619 13.228-24.648 20.234 0-3 0-3 1.914-5.129 7.308-6.56 14.99-12.316 23.086-17.871"/><path fill="#f7f7f4" d="M500 691c4.296.436 8.005.975 11.063 4.125L512 697l-7 1v-2h-2v2h-2l-2-6z"/><path fill="#ccc4c1" d="M1426 975c3.883 3.777 7.437 7.743 10.938 11.875l1.513 1.777 3.01 3.538c2.504 2.944 5.022 5.877 7.539 8.81-9.735-4.596-17.189-15.129-23-24z"/><path fill="#f5f5f4" d="m1999 920 5 5c-1.375 2-1.375 2-3 4h-2v2l-4-2 1-2c.04-2 .043-4 0-6z"/><path fill="#f7f6f5" d="m1922 1032 1 3c-1.434 2.262-1.434 2.262-3.437 4.688l-1.997 2.449L1916 1044l-4-2 4-6 1-2c3-2 3-2 5-2"/><path fill="#c4b8bb" d="M1677 723c4.698 1.428 7.555 4.164 10.875 7.625l1.585 1.618c4.002 4.116 7.859 8.35 11.54 12.757l-1 2c-3.99-3.897-7.893-7.805-11.5-12.062-3.052-3.567-6.393-6.59-9.996-9.59L1677 724z"/><path fill="#f5f6f3" d="m536 820 7 1-.125 2.813c-.146 3.345-.146 3.345 2.125 6.187l-2 2-3-1c-1.422-2.922-2.24-5.854-3-9z"/><path fill="#c7babe" d="M1443 795c0 4.142-1.656 5.053-4.5 8-5.041 5.33-9.32 10.962-13.5 17 0-8.814 12.033-19.033 18-25"/><path fill="#ebe7e6" d="M1924 881c1 2 1 2 .375 4.5-1.755 3.19-3.011 3.277-6.375 4.5-2.113 1.561-4.028 3.257-6 5 1.475-3.207 3.288-5.89 5.438-8.687l1.808-2.387C1921 882 1921 882 1924 881"/><path fill="#c5b3b8" d="m1888 1080 1 2c-4.696 6.635-9.504 13.006-15 19 0-4.166 2.255-6.263 4.75-9.375l1.344-1.71A747 747 0 0 1 1884 1085l2.328-2.914z"/><path fill="#ededeb" d="m495 777 1 2c3.03.658 3.03.658 6 1v3l2 1-1 3c-3.298-.569-4.8-1.5-7-4l-2-2c.375-2.125.375-2.125 1-4"/><path fill="#ebe8e7" d="M488 687c8.571.857 8.571.857 12 3-2.675 1.663-5 3-8 4l-1-4-4 1z"/><path fill="#ebe2e3" d="M1622 1098c2.375-.187 2.375-.187 5 0l2 3q-2.905 1.008-5.812 2l-3.27 1.125C1617 1105 1617 1105 1614 1105v-2c2.647-1.46 3.894-2 7-2z"/><path fill="#f2f1f0" d="m1453 785-4 2v2h-3l-1 3c-1.876 1.845-3.927 3.368-6 5l-2-1 1.438-1.312c1.799-1.711 1.799-1.711 2.562-4.688h3v-2h4v-2l-2-1c3.133-1.044 3.99-.934 7 0"/><path fill="#f1f1ee" d="m1904 914-2 2v3l-6 3v-3h-2c.98-2.452 1.687-3.78 3.875-5.312 2.475-.801 3.708-.551 6.125.312"/><path fill="#f3f6f2" d="M1893 923h2c.813 1.688.813 1.688 1 4-2.375 2.563-2.375 2.563-5 5l-1 3-4-2c1.375-2 1.375-2 3-4h2l.438-1.875C1892 925 1892 925 1893 923"/><path fill="#f3f4ef" d="M1522 678c-3.704 2.376-6.93 2.205-11.25 2.125l-3.828-.055L1504 680v-2c6.326-.904 11.674-.904 18 0"/><path fill="#ebeae6" d="M1985 796c1.174 3.52 1.201 6.306 1 10l-2 2c-2.125-.375-2.125-.375-4-1h2v-3h-2c1.372-2.954 2.989-5.44 5-8"/><path fill="#f5f5f2" d="m1878 1087 2 2c-.193 2.897-1.028 4.032-2.937 6.25C1875 1097 1875 1097 1873 1097v-3l2-1-1-2c2-3 2-3 4-4"/><path fill="#e3e0df" d="M2009 764c1 3 1 3 1 5l-2 1 1 3-1.75.375c-2.273.631-4.175 1.514-6.25 2.625 1.41-3.039 3.089-5.594 5.125-8.25l1.633-2.14z"/><path fill="#bfb2b3" d="M547 940c1.339 4.016.23 5.672-1.312 9.563l-1.364 3.503C543 956 543 956 541 958c.587-4.49 1.764-8.225 3.563-12.375l1.378-3.21z"/><path fill="#f7f7f5" d="M1399 890h3c1.369 4.517.47 7.588-1 12h-2z"/><path fill="#ebeae6" d="M2024.625 746.875 2027 747c-.25 1.875-.25 1.875-1 4-2.147 1.385-3.439 2-6 2l-2 1c2.554-6.931 2.554-6.931 6.625-7.125"/><path fill="#eceae8" d="m2046 718 3 2-2 4-3-2-7 6c2.153-4.306 4.6-7.8 9-10"/><path fill="#e8e1de" d="M1493 1025q2.844.467 5.688.938l3.199.527c2.715.467 5.414.98 8.113 1.535v1l-1.828-.035c-.8-.01-1.599-.018-2.422-.027l-2.39-.036c-2.267.094-4.189.466-6.36 1.098z"/><path fill="#f5f6f2" d="M552 931h2v9l-2 1-3-2c.75-5.75.75-5.75 3-8"/><path fill="#f0f0ee" d="M1325 986h2c2 6.625 2 6.625 2 10l-4-2v-2h-2v-2h2z"/><path fill="#efebe8" d="M636 983h2l-3 9-2-4 3-1-1-3zm-5 5 2 1-2 4-2-4z"/><path fill="#f5f6f2" d="M1674 724h2c1.625 2 1.625 2 3 4-2 2-2 2-5.125 2.125L1671 730c1.875-4.875 1.875-4.875 3-6"/><path fill="#e7e1df" d="M1313 961c2 2 2 2 2 5l4 1v4h-2l-1 3a895 895 0 0 1-1.5-4.812l-.844-2.708C1313 964 1313 964 1313 961"/><path fill="#f5f2f2" d="m1698 751-6 7-2-1c.813-2.937.813-2.937 2-6 3-1 3-1 6 0"/><path fill="#e5e1df" d="m1896 918 1 2c-2.143 3.215-3.695 4.146-7 6l-3 2c1.53-3.443 3.493-6.19 6-9z"/><path fill="#f8f7f6" d="m885 856 3 2h-15c4.73-2.365 6.938-3.392 12-2"/><path fill="#f2f2f2" d="m1497 759 5 1 1 3c-3.375.625-3.375.625-7 1l-2-2h2z"/><path fill="#ede8e8" d="M1955 981h2l2 7-3 3v-2l-3-1 2-1z"/><path fill="#f4f2f1" d="M653 870v4c-2 1.75-2 1.75-4 3l-2-1v-5c2-1 2-1 6-1"/><path fill="#f3f4f5" d="M2046 861h4c.25 2.25.25 2.25 0 5-2 2.313-2 2.313-4 4-1.125-5.625-1.125-5.625 0-9"/><path fill="#f6f5f5" d="M1410.563 837.938 1413 838l-2 4h-2v6l-2-1c-.098-6.152-.098-6.152 0-8 1-1 1-1 3.563-1.062"/><path fill="#f2f4ef" d="m2059 703 2 1-1 2h-2v2h-2v2h2l-1 2c-2.562.625-2.562.625-5 1l1-4h2v-2h2z"/><path fill="#f5f3f2" d="M1911 903c-.562 1.938-.562 1.938-2 4-3.625.75-3.625.75-7 1 3.652-6.783 3.652-6.783 9-5"/><path fill="#eae8e7" d="m1346 1024 3 1c.688 2.063.688 2.063 1 4l-5 1-2-4 2-1z"/><path fill="#f3f5f3" d="m1317 826 2 2-2 4 2 1-3 1v2l-3-1z"/><path fill="#e7e4df" d="m2017 754 2 1v3c-2.25 1.5-2.25 1.5-5 3a163 163 0 0 0-4 3c1.668-3.941 4.227-6.79 7-10"/><path fill="#faf6f1" d="M454 1105c3 2 3 2 4 4h-9v-2c2.313-1.125 2.313-1.125 5-2"/><path fill="#f4efef" d="m1680 1068 4 1-5 6-2-1z"/><path fill="#e6dfe0" d="m1977 954 1.875 1.063L1981 956l2-1c-.687 1.938-.687 1.938-2 4-2.625.75-2.625.75-5 1v-2h2z"/><path fill="#f9f8f6" d="M1025 856v2h-8v-2c2.862-1.43 4.934-.6 8 0"/><path fill="#ebe6e7" d="m1462 685-3 2 1 2-5 1-1-2 2-1-1-2c3.133-1.044 3.99-.934 7 0"/><path fill="#f3f4f0" d="m1925 1021 2 2h3l-3 4-4-2h2z"/><path fill="#f7f7f2" d="M1659 1081v3h-2l-1 3-2-1c.375-1.937.375-1.937 1-4 2-1 2-1 4-1"/><path fill="#f5f5f3" d="m1598 771 7 1v2h-2l-1 2-4-2z"/><path fill="#f5f5f1" d="m1438 692 2 1-2 5-3-1c.375-1.937.375-1.937 1-4z"/></svg>