<?xml version="1.0" encoding="UTF-8"?>
<svg version="1.1" xmlns="http://www.w3.org/2000/svg" viewBox="230 670 1940 460" preserveAspectRatio="xMidYMid meet">
<path d="M0 0 C0.91712769 -0.00014603 1.83425537 -0.00029205 2.7791748 -0.0004425 C5.82009216 0.00025591 8.86094877 0.00804499 11.90185547 0.01586914 C14.0064999 0.01773357 16.11114477 0.01915736 18.21578979 0.02015686 C23.76260572 0.02398004 29.30939557 0.03380865 34.85620117 0.04486084 C40.51334277 0.05507923 46.17048856 0.0596554 51.82763672 0.06469727 C62.93311694 0.07543108 74.03857779 0.09250513 85.14404297 0.11352539 C87.60393697 4.88269932 87.41603422 9.31633499 87.37782288 14.54641724 C87.3793278 15.97829433 87.3793278 15.97829433 87.38086313 17.43909824 C87.38181637 20.64071545 87.36846757 23.84211354 87.35522461 27.04370117 C87.35302338 29.33870376 87.35171791 31.63370735 87.35124207 33.92871094 C87.3483064 38.87506024 87.3390503 43.82134356 87.32493782 48.76767349 C87.30265945 56.60324271 87.29457837 64.43878744 87.28843689 72.27438354 C87.27865248 83.27530376 87.26198108 94.27619725 87.23999023 105.27709961 C87.23859692 105.97507329 87.23720361 106.67304697 87.23576807 107.39217137 C87.23437254 108.09092865 87.23297701 108.78968594 87.23153919 109.50961769 C87.2287181 110.92307845 87.22589953 112.33653922 87.2230835 113.75 C87.22099051 114.8005389 87.22099051 114.8005389 87.21885524 115.87230081 C87.20356694 123.6231162 87.1906464 131.37393502 87.1784668 139.12475586 C87.17683052 140.16406788 87.17683052 140.16406788 87.17516119 141.2243761 C87.15705923 152.82871989 87.14313497 164.43306648 87.13129514 176.03741825 C87.12293378 183.81047939 87.10895359 191.58350358 87.09032261 199.35654664 C87.07959231 204.21943028 87.07306451 209.08231364 87.06752205 213.94520569 C87.06408457 216.18191246 87.05890782 218.41861743 87.051754 220.6553154 C87.01053833 233.84555006 87.28849086 246.94947274 88.14404297 260.11352539 C89.05187176 258.926383 89.95969801 257.73923866 90.86752319 256.55209351 C91.62584222 255.56045732 91.62584222 255.56045732 92.39948082 254.54878807 C93.51836815 253.08557613 94.63713682 251.62227347 95.75585938 250.15893555 C98.66161593 246.35818906 101.56876069 242.55852679 104.47998047 238.76196289 C113.62062171 226.83692897 122.67382408 214.85198916 131.5612793 202.73681641 C136.32956117 196.23703907 141.12706151 189.80796418 146.22216797 183.55883789 C149.98085416 178.77644449 153.43762973 173.76951034 156.94775391 168.8034668 C161.11874367 162.91130534 165.32171483 157.07692644 169.89404297 151.48852539 C173.46414997 147.0870236 176.71834496 142.51006127 179.95654297 137.86352539 C184.13575486 131.87380326 188.45577761 126.05408238 193.00537109 120.34179688 C200.44306529 110.99560732 207.5011435 101.35906913 214.56591797 91.72973633 C219.35932242 85.19769854 224.16890432 78.71532502 229.28466797 72.42993164 C234.31943512 66.15762719 239.0938008 59.68197876 243.64404297 53.05102539 C246.09490462 49.50713578 248.69771229 46.17315588 251.45654297 42.86352539 C257.19012437 35.95407391 262.2960017 28.62783424 267.43066406 21.26977539 C268.28939427 20.04013365 269.15031993 18.81202221 270.01342773 17.58544922 C271.18921523 15.91447297 272.35828405 14.23877478 273.52685547 12.56274414 C273.94516129 12.02291397 274.3634671 11.4830838 274.79444885 10.92689514 C276.2174744 9.09009297 276.2174744 9.09009297 277.44664001 6.84007263 C279.75037483 3.42999182 281.9470023 0.68713762 286.0801239 -0.39195442 C292.07077463 -1.19619801 298.11329057 -0.94281425 304.14013672 -0.80053711 C306.09926499 -0.78627446 308.05842476 -0.77586506 310.01759338 -0.76913452 C315.1556152 -0.74054685 320.29135058 -0.6570611 325.42852783 -0.56274414 C330.67391808 -0.47745159 335.91961026 -0.4493998 341.16552734 -0.41381836 C348.80385322 -0.3504468 356.44186688 -0.2747123 364.0793457 -0.14282227 C364.88604706 -0.13227814 365.69274841 -0.12173401 366.52389526 -0.11087036 C372.02804122 -0.00247635 372.02804122 -0.00247635 373.14404297 1.11352539 C373.93619731 5.62659347 374.269198 9.97905515 374.26988411 14.55559635 C374.27379573 16.44415902 374.27379573 16.44415902 374.27778637 18.37087446 C374.2756245 19.75547428 374.27336786 21.14007394 374.27102661 22.52467346 C374.27217955 24.00603156 374.27376823 25.48738938 374.27575386 26.9687466 C374.27992574 31.03306335 374.27786588 35.0973566 374.27476764 39.16167343 C374.27250412 43.55049223 374.27599854 47.939307 374.27874756 52.328125 C374.28319923 60.93661566 374.28222994 69.5450976 374.27933492 78.1535886 C374.27707165 85.17765392 374.27677239 92.20171681 374.27785873 99.22578239 C374.27801197 100.2278005 374.2781652 101.22981861 374.27832308 102.2622009 C374.27864285 104.29873968 374.27896706 106.33527845 374.27929567 108.37181722 C374.28215046 127.49641883 374.27886702 146.62101566 374.2734953 165.74561649 C374.26905933 182.03874676 374.26977642 198.33186987 374.27441406 214.625 C374.27981574 233.61078268 374.28184218 252.59656112 374.2788018 271.58234447 C374.27848333 273.62553879 374.27816896 275.6687331 374.27785873 277.71192741 C374.27770446 278.71669251 374.27755018 279.72145761 374.27739123 280.75667014 C374.27654026 287.72149965 374.27797874 294.68632638 374.28033829 301.65115547 C374.30248131 373.59467918 374.30248131 373.59467918 373.69824219 407.3828125 C373.67883017 408.52808257 373.65941815 409.67335264 373.63941789 410.85332787 C373.58449917 413.96988508 373.52208552 417.08616606 373.45578003 420.20249939 C373.43948445 421.10723067 373.42318887 422.01196194 373.40639949 422.94410932 C373.26043926 428.99712909 373.26043926 428.99712909 372.14404297 430.11352539 C369.26853339 430.21409608 366.4170069 430.24967901 363.54101562 430.24291992 C362.63860641 430.24467224 361.7361972 430.24642456 360.80644226 430.24822998 C357.80697741 430.25265085 354.80757098 430.24970919 351.80810547 430.24633789 C349.73163847 430.24701098 347.65517156 430.24798105 345.57870483 430.24923706 C341.21896619 430.25071445 336.85924799 430.24855861 332.49951172 430.24389648 C326.9048938 430.23820625 321.31032392 430.24147347 315.71570778 430.24746895 C311.4246891 430.25107949 307.13368183 430.24993357 302.84266281 430.24734116 C300.77973805 430.24667289 298.71681226 430.24749683 296.6538887 430.24982071 C293.77118428 430.25235451 290.88855797 430.24849596 288.00585938 430.24291992 C287.14859756 430.24494415 286.29133575 430.24696838 285.40809631 430.24905396 C282.06779935 430.23705815 279.33520097 430.17724472 276.14404297 429.11352539 C275.15678073 426.15173868 275.02280609 424.25402806 275.03051758 421.16697693 C275.0306271 419.62868367 275.0306271 419.62868367 275.03073883 418.05931377 C275.03590263 416.93050195 275.04106644 415.80169012 275.04638672 414.63867188 C275.04782433 413.44391393 275.04926193 412.24915598 275.0507431 411.01819324 C275.05452865 408.3970693 275.06013961 405.77602064 275.06874084 403.15491486 C275.08251862 398.91624789 275.08886995 394.67758877 275.09411621 390.43890381 C275.10224585 384.3324218 275.11309177 378.22595058 275.12573242 372.11947632 C275.15832496 356.07063294 275.17037659 340.02177398 275.17529297 323.97290039 C275.17572444 322.75620812 275.17572444 322.75620812 275.17616463 321.51493621 C275.18711382 287.44159088 274.9761166 253.37267737 274.64404297 219.30102539 C274.62600616 217.43698626 274.62600616 217.43698626 274.60760498 215.53528976 C274.46383864 200.72791552 274.31040103 185.92066298 274.14404297 171.11352539 C273.74317978 171.66290771 273.34231659 172.21229004 272.92930603 172.77832031 C271.09595078 175.28781326 269.25870766 177.79443467 267.42138672 180.30102539 C266.79083374 181.1653418 266.16028076 182.0296582 265.51062012 182.92016602 C262.40324706 187.15389844 259.29812515 191.2705651 255.70654297 195.11352539 C252.32448669 198.75136743 249.85396012 202.64822764 247.26513672 206.87524414 C244.53604606 211.0417564 241.55214392 214.97751954 238.51904297 218.92602539 C237.96837158 219.64338867 237.4177002 220.36075195 236.8503418 221.09985352 C234.46219048 224.18858199 232.05320065 227.24649604 229.53076172 230.22680664 C227.05955818 233.21570912 224.80286609 236.31395731 222.58154297 239.48852539 C215.06193032 250.10922972 207.29332453 260.51746531 199.08154297 270.61352539 C194.4245783 276.34325108 190.20461153 282.27954944 186.08398438 288.40332031 C182.72749454 293.35892128 179.0895186 297.97912675 175.24169922 302.56665039 C171.12010818 307.57089128 167.43581608 312.89925843 163.67382812 318.17553711 C157.71106767 326.52703204 151.74387261 334.77368868 145.15966797 342.64868164 C142.50113451 345.89971772 140.0786104 349.29522092 137.63232422 352.70727539 C134.26092637 357.36308438 130.75579372 361.9189303 127.26904297 366.48852539 C126.56900146 367.40601563 125.86895996 368.32350586 125.14770508 369.26879883 C121.73168244 373.74047982 118.30651727 378.20482951 114.86572266 382.6574707 C109.49816492 389.60397428 104.30402829 396.66257045 99.22216797 403.82055664 C94.17371223 410.87829777 88.75232425 417.49886411 83.14404297 424.11352539 C82.09611824 425.6638446 82.09611824 425.6638446 81.02702332 427.2454834 C78.68093072 430.03799262 78.14943821 430.11250618 74.25337219 430.84851074 C72.70968271 430.87187181 71.16527502 430.8623136 69.62182617 430.82641602 C68.77574799 430.83050476 67.9296698 430.83459351 67.05795288 430.83880615 C64.2693555 430.84480895 61.48313914 430.80792343 58.69482422 430.76977539 C56.75620611 430.76365864 54.81757922 430.75990759 52.87895203 430.75842285 C48.82105749 430.74922579 44.76395883 430.72040674 40.70629883 430.67602539 C35.4972236 430.61934739 30.28877344 430.59759046 25.07941914 430.58866119 C21.0791953 430.58036197 17.07909855 430.56073669 13.07893944 430.53691101 C11.15754402 430.52549527 9.23613635 430.51598128 7.31472206 430.50837708 C4.63561977 430.49467674 1.95701907 430.46742841 -0.72192383 430.43579102 C-1.5203923 430.4335553 -2.31886078 430.43131958 -3.14152527 430.42901611 C-8.62656389 430.34291853 -8.62656389 430.34291853 -10.85595703 428.11352539 C-11.10435402 425.1271919 -11.10435402 425.1271919 -11.10205269 421.19881248 C-11.10436038 420.47556923 -11.10666807 419.75232598 -11.10904568 419.00716627 C-11.11438255 416.5588356 -11.1053313 414.11076263 -11.09646606 411.66244507 C-11.09733738 409.89942857 -11.09908699 408.13641233 -11.1016444 406.37339747 C-11.10613651 401.50941133 -11.09808879 396.64551253 -11.08808827 391.78153753 C-11.07948278 386.54362323 -11.08237187 381.30571418 -11.08389282 376.0677948 C-11.08494352 366.98631999 -11.07864768 357.90487383 -11.06741714 348.82340622 C-11.05119004 335.69299519 -11.045957 322.56259807 -11.04344116 309.43217809 C-11.03905967 288.13096569 -11.02573826 266.82976856 -11.00683594 245.52856445 C-10.98848888 224.83162513 -10.97432664 204.13468995 -10.96582031 183.43774414 C-10.96529487 182.16282248 -10.96476942 180.88790081 -10.96422805 179.57434516 C-10.96161805 173.17868803 -10.95909061 166.78303087 -10.95660424 160.38737369 C-10.93585759 107.29608035 -10.90061972 54.20480362 -10.85595703 1.11352539 C-7.49450153 -0.56720236 -3.69608235 -0.0152429 0 0 Z " fill="#FDFCFC" transform="translate(1787.85595703125,680.886474609375)"/>
<path d="M0 0 C0.80909614 -0.00311998 1.61819228 -0.00623996 2.45180649 -0.00945449 C5.17342423 -0.01745527 7.89482026 -0.0111022 10.61643982 -0.00482178 C12.56482067 -0.0075312 14.51320049 -0.01109186 16.46157837 -0.01544189 C21.7687877 -0.02458777 27.07591956 -0.02100894 32.38313031 -0.01468372 C37.95503781 -0.00961859 43.52693868 -0.01431814 49.09884644 -0.01745605 C58.48167608 -0.02110115 67.86447432 -0.01628964 77.24729919 -0.0067749 C88.03332944 0.00403783 98.81928364 0.00063901 109.60531193 -0.01042771 C118.89572972 -0.0195728 128.1861249 -0.02074877 137.47654575 -0.01555037 C143.01058658 -0.01246058 148.54459201 -0.01193614 154.07863045 -0.01862335 C203.77227294 -0.07043244 256.06931591 0.9958195 300.14549255 27.25396729 C301.2334613 27.86240479 302.32143005 28.47084229 303.44236755 29.09771729 C324.97744629 41.3934105 345.11481817 57.43951895 360.14549255 77.25396729 C360.96404724 78.28006104 361.78260193 79.30615479 362.6259613 80.36334229 C372.20433108 92.40892292 379.5197063 105.40815386 386.14549255 119.25396729 C386.61986755 120.23365479 387.09424255 121.21334229 387.58299255 122.22271729 C390.95364702 129.38535803 393.64585477 136.74683144 396.14549255 144.25396729 C396.49611755 145.29681885 396.84674255 146.33967041 397.20799255 147.41412354 C414.94259526 204.42810021 407.68087526 269.46035716 381.14549255 322.25396729 C378.13169587 327.79939711 374.75378775 333.07897073 371.14549255 338.25396729 C370.76151306 338.80471924 370.37753357 339.35547119 369.98191833 339.9229126 C365.46921177 346.30805561 360.54615583 352.2291928 355.2431488 357.96881104 C353.41710055 359.95808148 351.68559175 361.99248228 349.95799255 364.06646729 C331.80491547 384.70626726 307.43585404 400.76544927 282.14549255 411.25396729 C281.02271912 411.73092041 279.89994568 412.20787354 278.7431488 412.69927979 C261.21382809 419.86351881 242.42645152 423.8829885 223.83299255 427.12896729 C222.6725946 427.3320752 221.51219666 427.53518311 220.31663513 427.7444458 C205.45945919 430.20308766 190.74893114 430.39713057 175.73777771 430.36749268 C173.71603395 430.36721005 171.69429009 430.36737 169.67254639 430.36793518 C164.22519291 430.36822022 158.77786179 430.36237107 153.33051348 430.35536122 C147.62238715 430.3490787 141.91426023 430.34852003 136.20613098 430.34733582 C125.41534708 430.34423688 114.62457341 430.33604299 103.833794 430.32598633 C91.54108065 430.31478039 79.2483668 430.30930348 66.95564961 430.30429089 C41.68559161 430.29385908 16.41554266 430.27628765 -8.85450745 430.25396729 C-10.46701609 425.27995203 -11.10539348 421.10407414 -11.10898304 415.82330608 C-11.11379276 414.74588153 -11.11379276 414.74588153 -11.11869964 413.64669082 C-11.12698593 411.24533038 -11.12108027 408.84422025 -11.11520386 406.44285583 C-11.11822513 404.70169721 -11.12211449 402.96053992 -11.12679642 401.21938497 C-11.13708754 396.43897619 -11.1348918 391.65864231 -11.13061583 386.87822735 C-11.12815077 381.72147315 -11.13715982 376.56473708 -11.14465332 371.4079895 C-11.15740654 361.30896741 -11.15919339 351.20997189 -11.15685306 341.1109431 C-11.15507114 332.9069853 -11.15681682 324.70303558 -11.1610775 316.49907875 C-11.16167269 315.33217754 -11.16226788 314.16527634 -11.1628811 312.96301449 C-11.16409282 310.59265969 -11.16530695 308.22230489 -11.16652348 305.85195009 C-11.17740054 283.62244019 -11.1752352 261.39294547 -11.16913863 239.16343472 C-11.1639642 218.80535326 -11.17523851 198.44731956 -11.19423685 178.08924755 C-11.2135824 157.19960251 -11.22187736 136.30998011 -11.2181136 115.42032605 C-11.21619721 103.6865194 -11.21873194 91.95275346 -11.23282814 80.21895409 C-11.24470082 70.23491292 -11.24619299 60.25093756 -11.23403797 50.26689555 C-11.22812143 45.16896054 -11.22712605 40.07114612 -11.23904037 34.97321892 C-11.24980497 30.31333409 -11.24690966 25.65367193 -11.23277869 20.99379794 C-11.23010562 19.30151993 -11.23257892 17.60922499 -11.24051455 15.91696348 C-11.25050297 13.62950817 -11.24230139 11.34284486 -11.22923756 9.05542278 C-11.22929257 7.78107866 -11.22934759 6.50673454 -11.22940427 5.19377393 C-11.10568832 4.22363773 -10.98197237 3.25350154 -10.85450745 2.25396729 C-7.13844008 -0.22341096 -4.29930232 -0.02525497 0 0 Z M90.14549255 86.25396729 C90.14549255 171.39396729 90.14549255 256.53396729 90.14549255 344.25396729 C151.48168624 348.32903832 151.48168624 348.32903832 220.20799255 338.62896729 C221.22530457 338.27777832 222.24261658 337.92658936 223.29075623 337.5647583 C231.98418993 334.48052342 240.10816016 330.76044846 248.14549255 326.25396729 C249.06459412 325.78345947 249.98369568 325.31295166 250.9306488 324.82818604 C271.83623013 313.1298894 285.5809178 291.78970125 294.34959412 270.2119751 C295.00887609 268.59006055 295.69485676 266.97902772 296.38768005 265.37115479 C300.00725597 256.42042055 301.47564607 246.72405556 303.14549255 237.25396729 C303.34271912 236.17115479 303.53994568 235.08834229 303.7431488 233.97271729 C305.56297075 217.1526154 304.80038437 199.76449647 301.14549255 183.25396729 C300.98452087 182.49390381 300.82354919 181.73384033 300.65769958 180.95074463 C295.99021068 159.45160023 287.64252212 138.88654606 271.5009613 123.55084229 C269.43897103 121.5401453 267.68214339 119.50415726 265.89549255 117.25396729 C248.82685462 97.56549191 218.82111603 89.33842022 194.14549255 86.25396729 C159.82549255 86.25396729 125.50549255 86.25396729 90.14549255 86.25396729 Z " fill="#FCFCFB" transform="translate(248.85450744628906,680.7460327148438)"/>
<path d="M0 0 C1.99623596 0.51955644 4.00577369 0.98740894 6.01660156 1.44726562 C27.6802747 6.5845125 49.43815327 16.21533086 67.25878906 29.58789062 C68.70705078 30.65523437 68.70705078 30.65523437 70.18457031 31.74414062 C73.22762761 34.00226701 76.24800976 36.28693744 79.25878906 38.58789062 C80.57943359 39.59529297 80.57943359 39.59529297 81.92675781 40.62304688 C90.81509802 47.5545742 100.46882974 55.78559107 106.25878906 65.58789062 C105.85465941 68.74443895 104.84289107 70.37485176 102.59863281 72.57617188 C102.05142578 73.11822266 101.50421875 73.66027344 100.94042969 74.21875 C100.36486328 74.77369141 99.78929687 75.32863281 99.19628906 75.90039062 C98.64779297 76.44373047 98.09929687 76.98707031 97.53417969 77.546875 C94.64487642 80.38261065 91.68681871 83.09589516 88.60546875 85.72143555 C83.86338618 89.85806767 79.50290225 94.32508038 75.12207031 98.83789062 C73.39430456 100.59774173 71.66576656 102.35683493 69.93652344 104.11523438 C67.23657669 106.86481886 64.54155236 109.61856153 61.85913086 112.38525391 C59.2520529 115.07070284 56.62654879 117.7368962 53.99707031 120.40039062 C53.19489578 121.23666992 52.39272125 122.07294922 51.5662384 122.93457031 C50.81162827 123.69286133 50.05701813 124.45115234 49.27954102 125.23242188 C48.6219429 125.90635986 47.96434479 126.58029785 47.28681946 127.2746582 C45.25878906 128.58789062 45.25878906 128.58789062 42.61315918 128.37985229 C39.99014487 127.49752425 38.89398365 126.63220653 37.05175781 124.59570312 C36.47361328 123.97832275 35.89546875 123.36094238 35.29980469 122.72485352 C34.68814453 122.06090576 34.07648438 121.39695801 33.44628906 120.71289062 C26.08561338 113.0600813 18.29748939 107.11612667 9.25878906 101.58789062 C8.68290039 101.22646973 8.10701172 100.86504883 7.51367188 100.49267578 C-7.96986464 90.91981103 -27.51858601 83.6356402 -45.74121094 82.58789062 C-47.30243027 82.46968353 -48.86362641 82.35116991 -50.42480469 82.23242188 C-84.95393507 79.85133189 -118.00072823 88.15680342 -145.74121094 109.58789062 C-146.56492187 110.20792969 -147.38863281 110.82796875 -148.23730469 111.46679688 C-150.86960396 113.69665413 -152.9044776 116.01750841 -155.05371094 118.71289062 C-156.21580078 120.16308594 -156.21580078 120.16308594 -157.40136719 121.64257812 C-158.17351562 122.61453125 -158.94566406 123.58648438 -159.74121094 124.58789062 C-160.46179687 125.47734375 -161.18238281 126.36679687 -161.92480469 127.28320312 C-163.88348194 129.70470581 -165.83550705 132.12441974 -167.74121094 134.58789062 C-168.54042969 135.61140625 -169.33964844 136.63492188 -170.16308594 137.68945312 C-173.45093068 142.34494126 -175.57194453 147.46572488 -177.74121094 152.71289062 C-178.17691406 153.76460449 -178.61261719 154.81631836 -179.06152344 155.89990234 C-183.08745156 165.93006832 -185.71121917 175.99409008 -187.74121094 186.58789062 C-187.98484375 187.72097656 -188.22847656 188.8540625 -188.47949219 190.02148438 C-194.45106344 222.56045424 -188.6236249 261.69955587 -171.17871094 290.13476562 C-169.77726077 292.03890987 -168.2971063 293.80860474 -166.74121094 295.58789062 C-165.46813306 297.21113278 -164.19747285 298.83627279 -162.92871094 300.46289062 C-142.16110601 326.21472074 -114.57687506 342.93606745 -81.43652344 347.20117188 C-51.43578672 350.17694015 -24.15276993 346.08603307 2.57324219 332.3347168 C4.25878906 331.58789062 4.25878906 331.58789062 6.25878906 331.58789062 C6.26513697 330.63840971 6.26513697 330.63840971 6.27161312 329.66974735 C6.37478253 314.28914662 6.48339942 298.90859556 6.59812832 283.52807713 C6.65347738 276.09026749 6.70696208 268.65245306 6.75610352 261.21459961 C6.7989248 254.73404713 6.8451975 248.2535302 6.89566761 241.77303261 C6.9222852 238.33960611 6.94713859 234.90618674 6.96786308 231.47271919 C6.99102632 227.64590882 7.02189305 223.81918235 7.0534668 219.99243164 C7.05922226 218.84588608 7.06497772 217.69934052 7.07090759 216.51805115 C7.08069641 215.48173553 7.09048523 214.44541992 7.10057068 213.37770081 C7.11024951 212.01851705 7.11024951 212.01851705 7.12012386 210.63187504 C7.25878906 208.58789062 7.25878906 208.58789062 8.25878906 207.58789062 C11.0479368 207.48204701 13.81245384 207.44111249 16.60229492 207.44262695 C17.47704971 207.43926834 18.3518045 207.43590973 19.25306702 207.43244934 C22.15993652 207.42290934 25.06674861 207.42099471 27.97363281 207.41992188 C29.98523483 207.41671144 31.9968366 207.41334754 34.00843811 207.40983582 C38.23113547 207.40383693 42.45381235 207.4019967 46.67651367 207.40258789 C52.09863303 207.40268956 57.52062159 207.38903542 62.94270992 207.37181568 C67.0990103 207.36072017 71.25527881 207.35866792 75.41159248 207.35919762 C77.4111533 207.35801387 79.41071484 207.35357016 81.41026115 207.34586525 C84.20223131 207.33611449 86.99391432 207.33892382 89.78588867 207.3449707 C91.03509598 207.33654144 91.03509598 207.33654144 92.30953979 207.32794189 C98.03047372 207.35957528 98.03047372 207.35957528 100.25878906 209.58789062 C100.51326466 212.45935535 100.51326466 212.45935535 100.51948547 216.21064758 C100.52331102 216.89894895 100.52713657 217.58725032 100.53107804 218.29640931 C100.54143711 220.61410533 100.53741044 222.93155495 100.53344727 225.24926758 C100.53779223 226.9064558 100.54297465 228.563642 100.54893494 230.2208252 C100.56236166 234.73125173 100.56289938 239.24159465 100.56037164 243.75203729 C100.55930408 247.51446022 100.56417993 251.27686608 100.56897706 255.03928536 C100.58008564 263.9157702 100.58050253 272.79221274 100.57446289 281.66870117 C100.56842529 290.83000785 100.58072558 299.99116087 100.60203296 309.15244132 C100.61964243 317.01237732 100.62565122 324.87226439 100.62239522 332.7322194 C100.62058065 337.42894202 100.62323546 342.12555511 100.63710976 346.8222599 C100.6496723 351.24061936 100.64775894 355.65873932 100.63469887 360.07709503 C100.63232983 361.69884255 100.63507948 363.32060683 100.64332199 364.94233513 C100.65376419 367.15656313 100.6457098 369.36998387 100.63301086 371.58418274 C100.63326248 373.44276901 100.63326248 373.44276901 100.63351917 375.33890247 C100.09930434 379.97065638 98.48167703 382.53700406 94.98144531 385.54492188 C94.10359375 386.15722656 93.22574219 386.76953125 92.32128906 387.40039062 C91.3403125 388.08746094 90.35933594 388.77453125 89.34863281 389.48242188 C88.32898437 390.17722656 87.30933594 390.87203125 86.25878906 391.58789062 C84.80666016 392.58369141 84.80666016 392.58369141 83.32519531 393.59960938 C80.32356089 395.62860263 77.29578759 397.61229209 74.25878906 399.58789062 C73.31003906 400.2246875 72.36128906 400.86148437 71.38378906 401.51757812 C46.97907093 417.34251254 15.93301618 427.88367774 -12.74121094 432.58789062 C-13.57894043 432.72630371 -14.41666992 432.8647168 -15.27978516 433.00732422 C-31.23709728 435.57718531 -47.06781627 436.82372387 -63.24121094 436.83789062 C-63.94653961 436.83856537 -64.65186829 436.83924011 -65.37857056 436.8399353 C-93.61084721 436.79768974 -121.1446717 433.33117728 -147.74121094 423.58789062 C-149.60712891 422.92853516 -149.60712891 422.92853516 -151.51074219 422.25585938 C-167.36983539 416.57071187 -183.93536262 410.31300116 -197.15527344 399.63867188 C-199.90593277 397.45725775 -202.75685926 395.53333537 -205.67871094 393.58789062 C-224.55773661 380.71755629 -240.9081862 364.15517642 -253.22558594 344.90039062 C-254.37868627 343.14102104 -255.58703701 341.41772524 -256.81933594 339.71289062 C-267.25681717 325.2282228 -273.87846883 309.38841646 -279.74121094 292.58789062 C-280.09248047 291.58435547 -280.44375 290.58082031 -280.80566406 289.546875 C-288.50898703 267.13593723 -292.40681264 244.28710363 -292.74121094 220.58789062 C-292.75442383 219.6878833 -292.76763672 218.78787598 -292.78125 217.8605957 C-293.07806427 178.63917071 -284.28234889 141.63412926 -266.74121094 106.58789062 C-266.22171875 105.523125 -265.70222656 104.45835937 -265.16699219 103.36132812 C-262.01636625 97.23271328 -258.11570785 91.8466735 -253.88964844 86.41210938 C-251.70893507 83.54546253 -249.73402523 80.5870961 -247.74121094 77.58789062 C-246.57120048 76.03290899 -245.38479739 74.4900605 -244.17871094 72.96289062 C-242.45269923 70.77173991 -240.75013853 68.60065687 -239.15136719 66.31445312 C-238.68601562 65.7446875 -238.22066406 65.17492187 -237.74121094 64.58789062 C-237.08121094 64.58789062 -236.42121094 64.58789062 -235.74121094 64.58789062 C-235.53496094 64.03101563 -235.32871094 63.47414063 -235.11621094 62.90039062 C-233.56575371 60.29280346 -231.65688773 58.78776704 -229.29589844 56.92382812 C-227.50969978 55.47356683 -227.50969978 55.47356683 -225.55371094 52.83789062 C-218.98201693 44.64951791 -209.27635869 38.56360685 -200.74121094 32.58789062 C-200.18449707 32.19456543 -199.6277832 31.80124023 -199.05419922 31.39599609 C-189.69891417 24.82083146 -180.1350402 19.34734648 -169.74121094 14.58789062 C-169.02513672 14.25547363 -168.3090625 13.92305664 -167.57128906 13.58056641 C-154.35510809 7.51007343 -140.77193816 3.34206493 -126.74121094 -0.41210938 C-125.97599121 -0.62351562 -125.21077148 -0.83492187 -124.42236328 -1.05273438 C-84.82503432 -11.91791108 -39.44076151 -10.46484333 0 0 Z " fill="#FCFCFB" transform="translate(1595.7412109375,681.412109375)"/>
<path d="M0 0 C0.93663483 -0.00014603 1.87326965 -0.00029205 2.83828735 -0.0004425 C5.94413544 0.00025595 9.04992407 0.00804524 12.15576172 0.01586914 C14.30524666 0.01773356 16.45473202 0.01915735 18.60421753 0.02015686 C24.26940071 0.02398017 29.93455837 0.03380888 35.59973145 0.04486084 C41.37751927 0.05507896 47.15531121 0.05965534 52.93310547 0.06469727 C64.27556462 0.0754313 75.6180048 0.09250551 86.96044922 0.11352539 C88.97563008 3.46736939 89.21015935 6.01482825 89.20933819 9.89911938 C89.21393698 11.0882198 89.21853578 12.27732022 89.22327393 13.50245398 C89.21813037 14.81062168 89.21298681 16.11878937 89.20768738 17.46659851 C89.20927546 18.86995511 89.21173905 20.27331095 89.21500379 21.67666465 C89.22142979 25.54008348 89.21533847 29.40339784 89.20723951 33.26680982 C89.20066761 37.43518561 89.20561114 41.60354961 89.2091217 45.77192688 C89.21417582 53.96009036 89.20849947 62.14821356 89.1992714 70.33637204 C89.18884738 79.93736305 89.188959 89.53834549 89.18944398 99.13934109 C89.18994566 116.35820193 89.18077205 133.57704429 89.16625977 150.79589844 C89.15232195 167.34245136 89.14508246 183.88898798 89.14575195 200.43554688 C89.14581189 201.94919255 89.14581189 201.94919255 89.14587303 203.49341693 C89.14591339 204.50107216 89.14595374 205.50872738 89.14599532 206.54691762 C89.14669674 225.52756665 89.14071072 244.50820897 89.1318421 263.48885578 C89.12930289 269.17758956 89.12790879 274.86632214 89.1275113 280.55505646 C89.12473097 318.82299141 89.04022193 357.08681405 88.54380442 395.3519863 C88.51263583 397.78587323 88.48306624 400.21977535 88.45380819 402.65368593 C88.4080697 406.4103754 88.35688123 410.16694959 88.30094515 413.92350076 C88.28110532 415.29687235 88.26284713 416.67026778 88.24624743 418.04368235 C88.22323684 419.90640226 88.19338097 421.76903397 88.16310596 423.63164997 C88.14054949 425.193586 88.14054949 425.193586 88.11753732 426.78707629 C87.96044922 429.11352539 87.96044922 429.11352539 86.96044922 430.11352539 C83.98811172 430.21413997 81.03897144 430.24967424 78.06616211 430.24291992 C76.66624779 430.2455484 76.66624779 430.2455484 75.23805237 430.24822998 C72.13638478 430.25265058 69.03477369 430.24970954 65.93310547 430.24633789 C63.78698211 430.24701093 61.64085882 430.24798095 59.49473572 430.24923706 C54.9895658 430.25071436 50.48441567 430.24855866 45.97924805 430.24389648 C40.19396163 430.23820261 34.40872163 430.24147585 28.62343693 430.24746895 C24.18920032 430.25107661 19.75497477 430.24993497 15.32073784 430.24734116 C13.18720939 430.24667228 11.05367995 430.24749895 8.92015266 430.24982071 C5.94145153 430.2523502 2.96282631 430.24850224 -0.01586914 430.24291992 C-0.90477844 430.24494415 -1.79368774 430.24696838 -2.70953369 430.24905396 C-8.81102466 430.22778845 -8.81102466 430.22778845 -11.03955078 429.11352539 C-11.18987136 375.16653338 -11.3349006 321.21952938 -11.47279838 267.27250411 C-11.48907006 260.90863871 -11.5053857 254.54477342 -11.52172852 248.1809082 C-11.52498144 246.91393678 -11.52823437 245.64696536 -11.53158586 244.34160087 C-11.58441401 223.80660696 -11.64080686 203.2716243 -11.69850899 182.73664358 C-11.75760431 161.67772215 -11.81288768 140.61879322 -11.86460632 119.55985236 C-11.89665981 106.55746515 -11.93171355 93.55509305 -11.97056269 80.55272433 C-11.99689128 71.64566991 -12.01952894 62.73861097 -12.03922195 53.83153942 C-12.05070686 48.68685537 -12.06385948 43.54218931 -12.08138084 38.39752197 C-12.09736977 33.69230672 -12.10874877 28.98710421 -12.11638188 24.28186819 C-12.11997851 22.57520878 -12.12530139 20.868552 -12.13247914 19.16190389 C-12.14195413 16.85041154 -12.14526633 14.53899103 -12.14698124 12.22748184 C-12.15039872 10.94098936 -12.15381621 9.65449688 -12.15733725 8.32901978 C-12.06096799 5.69820137 -11.97569148 3.56313961 -11.03955078 1.11352539 C-7.63433937 -0.58908031 -3.74562959 -0.01512282 0 0 Z " fill="#FCFCFB" transform="translate(1147.03955078125,680.886474609375)"/>
<path d="M0 0 C44.15467155 -0.06861154 88.30933748 -0.12150101 132.4640518 -0.15319599 C137.67256782 -0.15694827 142.88108374 -0.16083122 148.08959961 -0.16479492 C149.126556 -0.16558185 150.1635124 -0.16636878 151.23189171 -0.16717956 C168.03961683 -0.18024658 184.84731128 -0.20390752 201.65501819 -0.23145839 C218.8911099 -0.25947659 236.12718552 -0.27616865 253.36329907 -0.28226548 C264.00569335 -0.28638938 274.64800097 -0.29943145 285.29036858 -0.3237494 C292.58039324 -0.33956237 299.87037285 -0.34441047 307.16041342 -0.34050413 C311.37137368 -0.33857564 315.5821821 -0.34160776 319.79311562 -0.35761642 C323.64408378 -0.37215032 327.49479713 -0.37299514 331.3457767 -0.36269668 C332.74286497 -0.36142274 334.13996875 -0.36528345 335.5370262 -0.37464955 C337.42852359 -0.38659855 339.32011666 -0.37844469 341.21162891 -0.36914349 C342.26459339 -0.37028265 343.31755787 -0.37142181 344.40243036 -0.37259549 C347 0 347 0 348.83838433 1.30917281 C350.80037703 4.16501462 350.40668459 7.4013114 350.37231445 10.74438477 C350.37596512 11.53164948 350.37961578 12.31891418 350.38337708 13.1300354 C350.39148772 15.73404464 350.37786968 18.33743266 350.36328125 20.94140625 C350.36276276 22.74836731 350.36328004 24.55532893 350.36479187 26.36228943 C350.36470213 30.14940815 350.35426753 33.93631408 350.33618164 37.72338867 C350.31347817 42.58498585 350.31295306 47.44627244 350.31969929 52.30790806 C350.32303558 56.03873978 350.31641588 59.76950029 350.30657005 63.50031853 C350.3027131 65.29333054 350.30157188 67.08635046 350.3031559 68.87936592 C350.30352548 71.38140169 350.29093729 73.88303437 350.2746582 76.38500977 C350.27837433 77.50326897 350.27837433 77.50326897 350.28216553 78.64411926 C350.22874361 83.77125639 350.22874361 83.77125639 348 86 C345.52021682 86.24839699 345.52021682 86.24839699 342.31905937 86.24609566 C341.10285561 86.25007775 339.88665186 86.25405985 338.63359344 86.25816262 C337.27174993 86.25245581 335.90990719 86.2465646 334.54806519 86.24050903 C333.11090778 86.24138044 331.67375067 86.24313023 330.23659527 86.24568737 C326.27332597 86.2501776 322.31016395 86.24213434 318.34690833 86.23213124 C314.07832823 86.22352306 309.80975455 86.22641503 305.54116821 86.22793579 C298.14088371 86.22898632 290.74063439 86.22269227 283.34035873 86.21146011 C272.64070543 86.1952307 261.94106919 86.18999974 251.24140491 86.18748413 C233.88342044 86.183103 216.52545474 86.16978258 199.16748047 86.15087891 C182.30224705 86.13253091 165.43701872 86.11836912 148.57177734 86.10986328 C147.01335382 86.10907511 147.01335382 86.10907511 145.423447 86.10827102 C140.2115315 86.10566101 134.99961597 86.10313358 129.78770041 86.10064721 C86.52512061 86.0799017 43.26256127 86.04466481 0 86 C-1.66821971 81.28915603 -2.25266777 77.52977265 -2.25878906 72.51342773 C-2.2622937 71.78906525 -2.26579834 71.06470276 -2.26940918 70.31838989 C-2.27816365 67.9400251 -2.27240037 65.56196122 -2.265625 63.18359375 C-2.26697331 61.52262821 -2.26891523 59.86166305 -2.27142334 58.20069885 C-2.27436596 54.72661567 -2.2701042 51.25263561 -2.26074219 47.77856445 C-2.24933924 43.33100664 -2.25591787 38.88369002 -2.26788712 34.43614101 C-2.27512143 31.00887746 -2.27281072 27.58167089 -2.26763153 24.15440559 C-2.26629984 22.51458775 -2.26792587 20.87476468 -2.27259064 19.23495293 C-2.27768273 16.94222211 -2.2699086 14.6498797 -2.25878906 12.35717773 C-2.25719788 11.05401108 -2.25560669 9.75084442 -2.25396729 8.40818787 C-2.00872858 5.11713574 -1.28795086 2.99303685 0 0 Z " fill="#FCFCFB" transform="translate(715,1025)"/>
<path d="M0 0 C1.040109 0.00021737 2.080218 0.00043474 3.15184546 0.00065869 C4.34939884 -0.0039401 5.54695222 -0.0085389 6.7807951 -0.01327705 C8.12160926 -0.00826127 9.46242273 -0.00305899 10.80323553 0.0023095 C12.21834399 0.00072258 13.6334517 -0.00173984 15.04855728 -0.00500691 C18.95095377 -0.01144541 22.85324718 -0.00533305 26.75563693 0.00275737 C30.95881842 0.00931545 35.16198802 0.00439003 39.36517096 0.00087517 C47.60464702 -0.00417561 55.84408306 0.00148581 64.08355415 0.01072548 C73.66991622 0.02109059 83.25626955 0.02103979 92.84263617 0.0205529 C109.94210061 0.02005184 127.04154638 0.02922544 144.14100409 0.04373711 C160.75005703 0.05782539 177.35909352 0.06490792 193.96815252 0.06424493 C194.99103575 0.06420497 196.01391898 0.06416501 197.06779867 0.06412385 C198.59941733 0.06406331 198.59941733 0.06406331 200.16197777 0.06400156 C219.04619873 0.06331237 237.93041268 0.06919804 256.81463137 0.07815478 C263.5037702 0.0811761 270.19290774 0.08223493 276.88204718 0.08268708 C285.02898384 0.083368 293.17590869 0.08781573 301.32284033 0.09701989 C305.48300354 0.10164879 309.64315159 0.10467938 313.80331755 0.10342568 C317.60659178 0.10233508 321.40983243 0.1058217 325.21309966 0.11307421 C326.59395342 0.11489572 327.97481064 0.11500994 329.35566455 0.11330692 C331.22288068 0.11125791 333.09010067 0.11588569 334.95731115 0.12091321 C336.51747465 0.12196984 336.51747465 0.12196984 338.10915661 0.12304783 C340.5545783 0.24954766 340.5545783 0.24954766 342.5545783 1.24954766 C343.72761871 4.76866889 343.69451379 7.93454261 343.68397284 11.59500664 C343.68660131 12.71256341 343.68660131 12.71256341 343.68928289 13.85269707 C343.69368624 16.31703551 343.69076844 18.78130224 343.6873908 21.24564141 C343.68806435 22.95813036 343.6890348 24.67061922 343.69028997 26.38310784 C343.69176495 29.97344404 343.68961906 33.56375537 343.6849494 37.15408868 C343.67925653 41.75534552 343.68252958 46.35654397 343.68852186 50.95779866 C343.69213653 54.49481682 343.69098464 58.03182115 343.68839407 61.56883973 C343.68772709 63.26530561 343.68854525 64.96177275 343.69087362 66.65823716 C343.69341449 69.03042326 343.68953908 71.40251506 343.68397284 73.77469414 C343.68599707 74.47560677 343.6880213 75.1765194 343.69010687 75.89867181 C343.67580216 79.19125777 343.42598992 82.08223903 342.5545783 85.24954766 C305.21157277 86.17919572 267.88257409 86.40106634 230.53069539 86.38484711 C225.04341937 86.38253067 219.55614644 86.38229168 214.06887007 86.38336343 C213.27543299 86.38351666 212.48199591 86.38366989 211.66451529 86.38382777 C210.05113492 86.38414759 208.43775455 86.38447181 206.82437418 86.38480036 C191.89482915 86.38761483 176.96529038 86.38442828 162.03574637 86.37899999 C149.25043534 86.37449597 136.46513334 86.37534493 123.67982244 86.37991875 C108.7183622 86.38526878 93.75690729 86.38738144 78.79544622 86.38430649 C77.20315651 86.38398801 75.61086681 86.38367363 74.0185771 86.38336343 C73.23563788 86.38320915 72.45269865 86.38305487 71.646034 86.38289592 C66.14793868 86.38203498 60.64984678 86.38348368 55.151752 86.38584298 C48.48027824 86.38864414 41.80881625 86.38789434 35.13734385 86.38256223 C31.73986742 86.37993564 28.34241065 86.37890313 24.94493437 86.38221139 C21.26476237 86.38493567 17.58464603 86.38152659 13.9044776 86.3765313 C12.29614924 86.37987739 12.29614924 86.37987739 10.65532941 86.38329107 C0.77854109 86.35720084 0.77854109 86.35720084 -3.4454217 85.24954766 C-4.97709536 82.18620033 -4.59272434 78.97993546 -4.59068537 75.61868829 C-4.59404398 74.8315696 -4.59740259 74.04445092 -4.60086298 73.23348016 C-4.6103842 70.62423673 -4.61231656 68.01505738 -4.61339045 65.40579766 C-4.61660178 63.59740709 -4.61996575 61.78901678 -4.62347651 59.98062676 C-4.6294704 56.18761119 -4.63131609 52.39461842 -4.63072443 48.60159844 C-4.63062269 43.73215623 -4.64428564 38.86285947 -4.66149664 33.99345177 C-4.67259273 30.25835018 -4.67464439 26.52328405 -4.6741147 22.78816766 C-4.67529803 20.99235566 -4.67973938 19.19654284 -4.68744707 17.400747 C-4.69720062 14.89386204 -4.69438765 12.3872967 -4.68834162 9.88040704 C-4.69396112 9.13332986 -4.69958063 8.38625268 -4.70537043 7.6165368 C-4.66141388 0.47568275 -4.66141388 0.47568275 0 0 Z " fill="#FCFCFB" transform="translate(717.4454216957092,680.7504523396492)"/>
<path d="M0 0 C2.45183372 -0.37604749 2.45183372 -0.37604749 5.61288452 -0.37752342 C6.8139213 -0.38534666 8.01495808 -0.39316991 9.25238991 -0.40123022 C10.59713498 -0.39474307 11.94187871 -0.38797306 13.28662109 -0.38095093 C14.70585682 -0.38440454 16.12508986 -0.38916711 17.54431725 -0.39513266 C21.45815105 -0.40771317 25.37176679 -0.4014405 29.28560162 -0.39217401 C33.50106509 -0.38541253 37.7164899 -0.39585026 41.9319458 -0.40411377 C50.19549643 -0.41748445 58.45896552 -0.41455857 66.7225194 -0.40587585 C73.43584903 -0.39911278 80.14915574 -0.3981766 86.86248779 -0.4014473 C87.81636363 -0.401907 88.77023947 -0.40236669 89.75302064 -0.40284032 C91.69053412 -0.40379946 93.62804759 -0.4047721 95.56556106 -0.4057581 C113.75243967 -0.41432176 131.93927299 -0.40446257 150.12614417 -0.388357 C165.74622818 -0.37495293 181.36624532 -0.37728075 196.98632812 -0.39111328 C215.10617233 -0.40715189 233.22597679 -0.4134977 251.3458271 -0.40427649 C253.2763888 -0.4033208 255.2069505 -0.40237769 257.13751221 -0.4014473 C258.08749474 -0.40098447 259.03747727 -0.40052164 260.01624715 -0.40004479 C266.72493209 -0.39744973 273.4335919 -0.40183698 280.14227295 -0.40888596 C288.31302473 -0.41728209 296.48369001 -0.41506073 304.65443182 -0.39904372 C308.82679095 -0.39113546 312.99900563 -0.3881126 317.17136383 -0.39799118 C320.98582869 -0.40688611 324.80001428 -0.40209207 328.61445355 -0.38605852 C329.99934335 -0.38268849 331.38425641 -0.38445419 332.76913142 -0.39168589 C334.64177693 -0.40071967 336.5144879 -0.38972123 338.38711548 -0.37752342 C339.95183562 -0.37679284 339.95183562 -0.37679284 341.54816628 -0.37604749 C342.3572714 -0.25195182 343.16637653 -0.12785615 344 0 C346.40951566 3.61427349 346.28921267 6.2460283 346.2746582 10.42138672 C346.2823246 11.5511644 346.2823246 11.5511644 346.29014587 12.70376587 C346.30405575 15.1958204 346.30308387 17.68759874 346.30078125 20.1796875 C346.30466786 21.91220198 346.30900245 23.6447155 346.31376648 25.37722778 C346.32123201 29.01046841 346.32093534 32.64361188 346.31567383 36.27685547 C346.3098834 40.92971454 346.32679811 45.582175 346.3500185 50.23496819 C346.36476205 53.81408 346.36562662 57.39309601 346.36250877 60.97223282 C346.36302183 62.68741774 346.36825662 64.40260805 346.37832069 66.11776352 C346.39067788 68.51871239 346.38389782 70.91888744 346.37231445 73.31982422 C346.37995819 74.02649231 346.38760193 74.7331604 346.39547729 75.46124268 C346.34870996 79.8540152 345.72766649 82.54310013 343 86 C340.46704262 86.62329382 340.46704262 86.62329382 337.36894512 86.62082577 C336.18928446 86.63201441 335.00962381 86.64320305 333.79421586 86.65473074 C331.84075194 86.63493079 331.84075194 86.63493079 329.8478241 86.61473083 C328.45532141 86.61834156 327.06282296 86.62414264 325.6703375 86.63195282 C321.83472849 86.64705771 317.99978377 86.63084472 314.16422689 86.6096462 C310.03118434 86.59220966 305.89820998 86.60352581 301.76515198 86.61131287 C293.66408794 86.62200392 285.56328308 86.6060058 277.46225854 86.5811746 C268.03208569 86.55328816 258.60196582 86.55190176 249.17175857 86.55173159 C232.34581405 86.55054321 215.51998878 86.52554284 198.6940918 86.48706055 C182.36172047 86.44973106 166.02943589 86.42846644 149.69702148 86.42553711 C148.18888561 86.42526289 148.18888561 86.42526289 146.65028235 86.42498314 C145.6466102 86.42480417 144.64293806 86.4246252 143.60885161 86.4244408 C141.58807925 86.42407539 139.56730689 86.42370301 137.54653454 86.42332363 C136.54999436 86.42313812 135.55345419 86.4229526 134.52671583 86.42276147 C118.9724973 86.41919077 103.4182922 86.40073748 87.86408731 86.38083039 C82.22393072 86.373807 76.58377732 86.36902472 70.94361731 86.36586904 C61.99474078 86.36081945 53.04592468 86.34939051 44.09707924 86.32456874 C40.00728778 86.31334625 35.91755565 86.30523238 31.82774734 86.30570221 C28.08408854 86.3060105 24.34057005 86.29707711 20.59694795 86.28073419 C18.60031355 86.27436886 16.60365543 86.27775128 14.60701436 86.2814731 C13.41953046 86.27440751 12.23204656 86.26734192 11.0085783 86.26006222 C9.98571907 86.2581113 8.96285983 86.25616037 7.90900487 86.25415033 C4.65934228 85.97023784 2.012303 85.24299374 -1 84 C-2.50708238 80.98583524 -2.14732511 77.87466383 -2.14526367 74.56860352 C-2.14862228 73.80259827 -2.1519809 73.03659302 -2.15544128 72.24737549 C-2.16496283 69.70786938 -2.16689497 67.16842911 -2.16796875 64.62890625 C-2.17118039 62.86775179 -2.17454439 61.10659761 -2.17805481 59.34544373 C-2.18404902 55.65078106 -2.1858944 51.9561418 -2.18530273 48.26147461 C-2.18520107 43.52216556 -2.1988562 38.78300619 -2.21607494 34.04373264 C-2.22718135 30.40552579 -2.22922237 26.76735529 -2.22869301 23.12913322 C-2.22987507 21.38159608 -2.23430944 19.63405806 -2.24202538 17.88653755 C-2.25179832 15.44451469 -2.24895804 13.00281889 -2.24291992 10.56079102 C-2.24853943 9.83601059 -2.25415894 9.11123016 -2.25994873 8.36448669 C-2.23675175 4.68154105 -2.10131657 3.15197486 0 0 Z " fill="#FCFCFB" transform="translate(715,853)"/>
<path d="M0 0 C77.88 0 155.76 0 236 0 C236 0.33 236 0.66 236 1 C230.98391475 2.0176403 226.21391694 2.11856434 221.125 2.0625 C220.34125 2.05798828 219.5575 2.05347656 218.75 2.04882812 C216.83329986 2.03714093 214.91663952 2.01920908 213 2 C213 2.99 213 3.98 213 5 C209.37 5 205.74 5 202 5 C202.33 4.34 202.66 3.68 203 3 C179.24 3 155.48 3 131 3 C131 3.66 131 4.32 131 5 C129.35 5 127.7 5 126 5 C126.33 4.34 126.66 3.68 127 3 C126.01 3 125.02 3 124 3 C124 3.66 124 4.32 124 5 C122.35 5 120.7 5 119 5 C119 4.34 119 3.68 119 3 C114.71 3 110.42 3 106 3 C106 3.66 106 4.32 106 5 C102.7 5 99.4 5 96 5 C96.66 4.34 97.32 3.68 98 3 C49.49 2.01 49.49 2.01 0 1 C0 0.67 0 0.34 0 0 Z " fill="#F3EBE8" transform="translate(715,853)"/>
<path d="M0 0 C2.24999332 4.49998665 2.24999332 4.49998665 2.24330235 8.12481785 C2.24666774 8.94314612 2.25003314 9.76147439 2.25350052 10.60460049 C2.24373882 11.94507872 2.24373882 11.94507872 2.23377991 13.31263733 C2.23478319 14.26636764 2.23578647 15.22009794 2.23682016 16.20272917 C2.23777482 19.40745204 2.22441487 22.611957 2.21118164 25.81665039 C2.20898083 28.11150547 2.20767503 30.40636156 2.2071991 32.70121765 C2.20426167 37.65031284 2.19499953 42.59934219 2.18089485 47.54841805 C2.15862964 55.38810779 2.15053752 63.22777304 2.14439392 71.06748962 C2.1346065 82.07438618 2.11793223 93.08125604 2.09594727 104.08813477 C2.09455395 104.78667395 2.09316064 105.48521313 2.0917251 106.20492017 C2.09032957 106.90424068 2.08893404 107.6035612 2.08749622 108.32407326 C2.08467514 109.73865218 2.08185658 111.15323112 2.07904053 112.56781006 C2.0776452 113.26871326 2.07624988 113.96961645 2.07481227 114.69175914 C2.05952751 122.44660275 2.04660515 130.20144978 2.03442383 137.95629883 C2.03333298 138.64943623 2.03224213 139.34257363 2.03111822 140.0567152 C2.01301606 151.66554738 1.99909162 163.27438236 1.98725218 174.88322252 C1.97888998 182.66046449 1.96490871 190.43766955 1.94627964 198.21489346 C1.9355492 203.08105524 1.92902144 207.94721674 1.92347908 212.81338692 C1.92004156 215.0517054 1.91486475 217.29002207 1.90771103 219.52833176 C1.86651184 232.72305607 2.14401322 245.83147145 3 259 C3.66 258.67 4.32 258.34 5 258 C4.1875 260.4375 4.1875 260.4375 3 263 C2.01 263.33 1.02 263.66 0 264 C0 176.88 0 89.76 0 0 Z " fill="#E6D5DE" transform="translate(1873,682)"/>
<path d="M0 0 C3.9495808 3.40420439 5.81541903 7.16120673 7.9375 11.8125 C8.28522461 12.57095215 8.63294922 13.3294043 8.99121094 14.11083984 C17.0282337 31.97959659 21.32086655 51.38662607 22 71 C22.06316406 72.09570312 22.12632812 73.19140625 22.19140625 74.3203125 C23.26167287 107.39500344 13.1930307 142.06361527 -9 167 C-13.56449622 171.76897323 -18.27321362 176.39271103 -23 181 C-23.66 180.67 -24.32 180.34 -25 180 C-24.30608154 179.34535767 -24.30608154 179.34535767 -23.59814453 178.67749023 C-8.67261181 164.48432838 1.44994659 151.03922673 9.20410156 131.95800781 C9.86338353 130.33609327 10.5493642 128.72506044 11.2421875 127.1171875 C14.86176341 118.16645327 16.33015352 108.47008828 18 99 C18.19722656 97.9171875 18.39445313 96.834375 18.59765625 95.71875 C20.4174782 78.89864811 19.65489182 61.51052919 16 45 C15.75854248 43.85990479 15.75854248 43.85990479 15.51220703 42.69677734 C12.79137616 30.16422784 8.21181231 18.73267779 2.92822266 7.07519531 C1.88461282 4.74203286 0.91783673 2.38539386 0 0 Z " fill="#CEC1C4" transform="translate(533,819)"/>
<path d="M0 0 C0.495 0.99 0.495 0.99 1 2 C-5.41204435 11.22293554 -11.83763566 20.34005039 -19 29 C-21.9942092 32.66428425 -24.77699475 36.44509136 -27.5 40.3125 C-31.36641405 45.76233063 -35.30715548 51.15144526 -39.3125 56.5 C-39.80363281 57.15782471 -40.29476563 57.81564941 -40.80078125 58.4934082 C-43.75826917 62.42885621 -46.81770495 66.24384847 -50 70 C-50 66.09150333 -48.77002706 65.06563464 -46.375 62 C-45.55741866 60.93970715 -44.7411042 59.8784367 -43.92578125 58.81640625 C-43.46768066 58.22230957 -43.00958008 57.62821289 -42.53759766 57.01611328 C-39.49560068 53.02741671 -36.53482672 48.97821007 -33.5625 44.9375 C-32.94745605 44.10412109 -32.33241211 43.27074219 -31.69873047 42.41210938 C-31.11881348 41.62513672 -30.53889648 40.83816406 -29.94140625 40.02734375 C-29.42263916 39.32343506 -28.90387207 38.61952637 -28.36938477 37.89428711 C-27.20901496 36.28913301 -26.09866741 34.64800112 -25 33 C-25.66 33 -26.32 33 -27 33 C-27.33 33.66 -27.66 34.32 -28 35 C-28.99 35 -29.98 35 -31 35 C-30.67 34.01 -30.34 33.02 -30 32 C-28.68 32 -27.36 32 -26 32 C-26 31.34 -26 30.68 -26 30 C-26.66 30 -27.32 30 -28 30 C-28.33 28.68 -28.66 27.36 -29 26 C-28.21625 25.87625 -27.4325 25.7525 -26.625 25.625 C-23.85942178 25.20882007 -23.85942178 25.20882007 -22 23 C-19.875 23.375 -19.875 23.375 -18 24 C-11.86514225 16.09257064 -5.83476996 8.13282181 0 0 Z " fill="#DAD2D5" transform="translate(2038,880)"/>
<path d="M0 0 C38.94 0 77.88 0 118 0 C118 0.66 118 1.32 118 2 C114.04 2.33 110.08 2.66 106 3 C106 3.66 106 4.32 106 5 C102.7 5 99.4 5 96 5 C96.66 4.34 97.32 3.68 98 3 C49.49 2.01 49.49 2.01 0 1 C0 0.67 0 0.34 0 0 Z " fill="#ECE2DE" transform="translate(715,853)"/>
<path d="M0 0 C0.66 0.66 1.32 1.32 2 2 C0.68 2.33 -0.64 2.66 -2 3 C-1.34 2.01 -0.68 1.02 0 0 Z M-3 3 C-2.34 3.99 -1.68 4.98 -1 6 C-3.12515329 9.18772993 -4.66515721 10.24920753 -8 12 C-8.66 12 -9.32 12 -10 12 C-11.32 14.31 -12.64 16.62 -14 19 C-15.32 18.67 -16.64 18.34 -18 18 C-18.99 19.485 -18.99 19.485 -20 21 C-19.505 21.61875 -19.01 22.2375 -18.5 22.875 C-17 25 -17 25 -17 27 C-19.33294775 27.04241723 -21.66702567 27.04092937 -24 27 C-24.33 26.67 -24.66 26.34 -25 26 C-27.31 28.64 -29.62 31.28 -32 34 C-32.33 33.34 -32.66 32.68 -33 32 C-31.58435393 30.10339726 -30.16751545 28.20770483 -28.75 26.3125 C-27.96109375 25.25675781 -27.1721875 24.20101562 -26.359375 23.11328125 C-25.58078125 22.08589844 -24.8021875 21.05851563 -24 20 C-22.92492188 18.56720703 -22.92492188 18.56720703 -21.828125 17.10546875 C-20.92320313 16.06326172 -20.92320313 16.06326172 -20 15 C-19.34 15 -18.68 15 -18 15 C-17.79375 14.443125 -17.5875 13.88625 -17.375 13.3125 C-15.44999226 10.07498698 -12.96149098 8.31768859 -10 6 C-9.67 6.66 -9.34 7.32 -9 8 C-8.34 8 -7.68 8 -7 8 C-6.71125 7.360625 -6.4225 6.72125 -6.125 6.0625 C-5 4 -5 4 -3 3 Z " fill="#E8E6E3" transform="translate(1378,731)"/>
<path d="M0 0 C0.66 0.33 1.32 0.66 2 1 C0.75998984 7.73650907 -2.47196683 11.30467721 -7.1875 16.125 C-7.83525391 16.81464844 -8.48300781 17.50429687 -9.15039062 18.21484375 C-13.13918206 22.38295148 -17.20027067 25.80018045 -22 29 C-22 28.34 -22 27.68 -22 27 C-22.66 27 -23.32 27 -24 27 C-23.505 25.515 -23.505 25.515 -23 24 C-22.63508688 22.6069375 -22.28137021 21.21090552 -21.9375 19.8125 C-21.628125 18.554375 -21.31875 17.29625 -21 16 C-20.34 17.32 -19.68 18.64 -19 20 C-18.401875 19.360625 -17.80375 18.72125 -17.1875 18.0625 C-15 16 -15 16 -12 15 C-11.67 14.01 -11.34 13.02 -11 12 C-10.34 11.67 -9.68 11.34 -9 11 C-8.67 10.01 -8.34 9.02 -8 8 C-7.34 7.67 -6.68 7.34 -6 7 C-6 6.34 -6 5.68 -6 5 C-5.34 5 -4.68 5 -4 5 C-4 4.34 -4 3.68 -4 3 C-3.01 3.33 -2.02 3.66 -1 4 C-0.67 2.68 -0.34 1.36 0 0 Z " fill="#EDEAE7" transform="translate(607,1028)"/>
<path d="M0 0 C3.96 0 7.92 0 12 0 C12.495 0.99 12.495 0.99 13 2 C11.02 2 9.04 2 7 2 C6.67 2.66 6.34 3.32 6 4 C6.99 4.66 7.98 5.32 9 6 C8.16082031 6.12375 7.32164063 6.2475 6.45703125 6.375 C-10.33607972 9.25484754 -25.71301937 15.8443874 -40.53125 24.1171875 C-43.32923327 25.63591265 -46.01686127 26.910007 -49 28 C-45.24295415 23.83912581 -41.60398991 21.45339763 -36.5625 19.0625 C-35.86527832 18.72331543 -35.16805664 18.38413086 -34.44970703 18.03466797 C-25.83442104 13.88598939 -17.11229649 9.92797515 -8 7 C-8.66 6.01 -9.32 5.02 -10 4 C-9.34 4 -8.68 4 -8 4 C-7.67 3.01 -7.34 2.02 -7 1 C-6.21625 1.165 -5.4325 1.33 -4.625 1.5 C-2.11791961 2.0623707 -2.11791961 2.0623707 0 2 C0 1.34 0 0.68 0 0 Z " fill="#DED4D6" transform="translate(1504,758)"/>
<path d="M0 0 C0.495 1.485 0.495 1.485 1 3 C-1.16343185 5.1907786 -3.33061964 7.37762406 -5.5 9.5625 C-6.10070313 10.17158203 -6.70140625 10.78066406 -7.3203125 11.40820312 C-8.22910156 12.32182617 -8.22910156 12.32182617 -9.15625 13.25390625 C-9.70087891 13.80377197 -10.24550781 14.3536377 -10.80664062 14.92016602 C-12.71510845 16.72985406 -14.66521833 18.44350699 -16.65820312 20.15820312 C-21.42033153 24.30421625 -25.86358432 28.73764218 -30.3125 33.21484375 C-31.16682617 34.07058487 -32.02115234 34.92632599 -32.90136719 35.80799866 C-35.60328862 38.51547381 -38.30169359 41.22642254 -41 43.9375 C-42.84221577 45.78473675 -44.68466143 47.63174427 -46.52734375 49.47851562 C-51.02089061 53.98303003 -55.5115632 58.49039405 -60 63 C-60.66 62.67 -61.32 62.34 -62 62 C-55.88274767 55.8594707 -49.76271864 49.72172583 -43.63922882 43.58741665 C-40.7952511 40.73824347 -37.95220143 37.8881575 -35.11132812 35.03588867 C-32.36437066 32.27798281 -29.6149033 29.52260139 -26.86375427 26.76887703 C-25.82002424 25.72331412 -24.77716743 24.67687868 -23.73524475 23.62951469 C-18.54177604 18.4100309 -13.34237278 13.25690413 -7.69519043 8.52259827 C-4.81719983 5.93762408 -2.4432118 2.99293445 0 0 Z " fill="#C4B3B8" transform="translate(1701,747)"/>
<path d="M0 0 C3.78842672 3.53762495 6.4491663 7.00879678 9.125 11.5 C9.78757812 12.6034375 10.45015625 13.706875 11.1328125 14.84375 C11.74898437 15.8853125 12.36515625 16.926875 13 18 C13.59554687 18.8971875 14.19109375 19.794375 14.8046875 20.71875 C15.19914063 21.4715625 15.59359375 22.224375 16 23 C15.67 23.99 15.34 24.98 15 26 C14.67 25.67 14.34 25.34 14 25 C14.33 26.65 14.66 28.3 15 30 C13.125 29.875 13.125 29.875 11 29 C9.6875 26.0625 9.6875 26.0625 9 23 C9.33 22.34 9.66 21.68 10 21 C9.34 20.67 8.68 20.34 8 20 C7.30341637 18.34561387 6.63903117 16.67745682 6 15 C5.34 14.01 4.68 13.02 4 12 C3.67 12.66 3.34 13.32 3 14 C2.34 14 1.68 14 1 14 C0.67 12.35 0.34 10.7 0 9 C0.66 9 1.32 9 2 9 C1.51421457 5.87709365 1.0013988 3.00419641 0 0 Z " fill="#F2F1EE" transform="translate(614,766)"/>
<path d="M0 0 C0.71800781 0.12890625 1.43601562 0.2578125 2.17578125 0.390625 C1.92578125 2.265625 1.92578125 2.265625 1.17578125 4.390625 C-0.88671875 5.640625 -0.88671875 5.640625 -2.82421875 6.390625 C-2.43234375 7.1125 -2.04046875 7.834375 -1.63671875 8.578125 C-0.82421875 11.390625 -0.82421875 11.390625 -2.07421875 14.015625 C-2.65171875 14.799375 -3.22921875 15.583125 -3.82421875 16.390625 C-4.48421875 17.380625 -5.14421875 18.370625 -5.82421875 19.390625 C-7.80421875 19.060625 -9.78421875 18.730625 -11.82421875 18.390625 C-11.16421875 17.070625 -10.50421875 15.750625 -9.82421875 14.390625 C-11.79244761 14.390625 -13.3295042 16.23342664 -14.82421875 17.390625 C-13.07763256 13.44860924 -10.57650277 10.0779644 -8.01171875 6.640625 C-7.58568359 6.03863281 -7.15964844 5.43664062 -6.72070312 4.81640625 C-3.47090953 0.48007047 -3.47090953 0.48007047 0 0 Z " fill="#F6F8F3" transform="translate(2024.82421875,746.609375)"/>
<path d="M0 0 C0.61875 0.350625 1.2375 0.70125 1.875 1.0625 C2.57625 1.371875 3.2775 1.68125 4 2 C4.66 1.67 5.32 1.34 6 1 C4.01105384 5.13254407 1.53402786 8.79237521 -1.0625 12.5625 C-1.548396 13.26834229 -2.03429199 13.97418457 -2.53491211 14.70141602 C-13.81210138 30.90605069 -13.81210138 30.90605069 -18 33 C-16.64581884 30.0778196 -15.07203863 27.69814496 -13.0625 25.1875 C-8.44949303 19.10058105 -6.65847541 13.50661962 -6 6 C-3.69 5.34 -1.38 4.68 1 4 C0.67 2.68 0.34 1.36 0 0 Z " fill="#FAF9F9" transform="translate(1977,954)"/>
<path d="M0 0 C2.32382652 6.97147955 -4.17689716 16.601647 -7.1875 22.9375 C-14.76269724 37.58611859 -25.10322013 48.67965747 -37 60 C-37.66 59.67 -38.32 59.34 -39 59 C-38.5373877 58.56357178 -38.07477539 58.12714355 -37.59814453 57.67749023 C-22.68416341 43.49531316 -12.78217324 30.17142074 -4.91894531 11.18847656 C-3.34144557 7.43164667 -1.66841296 3.71714997 0 0 Z " fill="#C5B8B9" transform="translate(547,940)"/>
<path d="M0 0 C1.65 0.66 3.3 1.32 5 2 C4.01 2.495 4.01 2.495 3 3 C3 4.65 3 6.3 3 8 C2.01 8.33 1.02 8.66 0 9 C-0.99 10.485 -0.99 10.485 -2 12 C-2.66 12 -3.32 12 -4 12 C-3.34 13.32 -2.68 14.64 -2 16 C-4.475 15.01 -4.475 15.01 -7 14 C-7 14.99 -7 15.98 -7 17 C-6.34 17 -5.68 17 -5 17 C-5.33 17.99 -5.66 18.98 -6 20 C-7.66666667 20 -9.33333333 20 -11 20 C-13.15028304 20.94978897 -13.15028304 20.94978897 -15 22 C-11.27667502 14.01871875 -5.83819006 6.56796382 0 0 Z " fill="#ECEBE9" transform="translate(1955,836)"/>
<path d="M0 0 C0 3.64167088 -1.02320796 5.00413696 -2.9375 8.0625 C-5.07735509 11.47066703 -5.07735509 11.47066703 -7 15 C-6.34 15.66 -5.68 16.32 -5 17 C-5.55008287 20.41051378 -6.28947215 23.38115316 -8.9375 25.6875 C-11 27 -11 27 -13 27 C-13.4021875 27.86625 -13.4021875 27.86625 -13.8125 28.75 C-15.01719859 31.0325868 -16.40798115 32.9737942 -18 35 C-17.05886151 29.4370451 -14.78245237 24.81346177 -12.375 19.75 C-11.96121094 18.84636719 -11.54742188 17.94273437 -11.12109375 17.01171875 C-8.12288172 10.67810975 -4.5160194 5.35219761 0 0 Z " fill="#E0DBDB" transform="translate(1340,771)"/>
<path d="M0 0 C0.5775 0.680625 1.155 1.36125 1.75 2.0625 C-0.1875 2.625 -0.1875 2.625 -2.25 3.0625 C-2.58 2.7325 -2.91 2.4025 -3.25 2.0625 C-5.3124994 3.87472534 -5.3124994 3.87472534 -7.25 6.0625 C-7.25 7.0525 -7.25 8.0425 -7.25 9.0625 C-8.24 9.7225 -9.23 10.3825 -10.25 11.0625 C-10.25 12.0525 -10.25 13.0425 -10.25 14.0625 C-11.57 14.0625 -12.89 14.0625 -14.25 14.0625 C-15.36785113 16.18035113 -15.36785113 16.18035113 -16.25 19.0625 C-16.91 19.0625 -17.57 19.0625 -18.25 19.0625 C-19.1171875 16.453125 -19.1171875 16.453125 -19.25 13.0625 C-17.65481647 10.59459474 -15.5599833 8.75796611 -13.375 6.8125 C-9.3130359 3.33183759 -9.3130359 3.33183759 -6.25 -0.9375 C-3.20740385 -2.40633952 -2.6185852 -2.25489281 0 0 Z " fill="#F5F5F2" transform="translate(533.25,981.9375)"/>
<path d="M0 0 C0.556875 0.226875 1.11375 0.45375 1.6875 0.6875 C1.0275 1.3475 0.3675 2.0075 -0.3125 2.6875 C-0.3125 3.6775 -0.3125 4.6675 -0.3125 5.6875 C-7.0625 9.6875 -7.0625 9.6875 -9.3125 9.6875 C-9.51875 10.595 -9.725 11.5025 -9.9375 12.4375 C-11.65930588 16.50722299 -13.54309351 17.50124423 -17.3125 19.6875 C-18.65425973 20.67616506 -19.99146002 21.6713154 -21.3125 22.6875 C-19.21881862 18.2643761 -16.41254414 14.53774068 -13.5 10.625 C-12.97857422 9.90505859 -12.45714844 9.18511719 -11.91992188 8.44335938 C-5.12521378 -0.69259646 -5.12521378 -0.69259646 0 0 Z " fill="#E9E6E7" transform="translate(1902.3125,913.3125)"/>
<path d="M0 0 C1.32 0.33 2.64 0.66 4 1 C4.33 2.65 4.66 4.3 5 6 C3.68 6 2.36 6 1 6 C0.54625 7.0725 0.0925 8.145 -0.375 9.25 C-1.50088537 11.88062317 -2.67920206 14.46000396 -4 17 C-5.32 17 -6.64 17 -8 17 C-8.33 16.34 -8.66 15.68 -9 15 C-9.99 15.66 -10.98 16.32 -12 17 C-10.25477062 12.94785821 -7.5771843 9.69396039 -4.875 6.25 C-4.40707031 5.64800781 -3.93914062 5.04601562 -3.45703125 4.42578125 C-2.30774993 2.94813384 -1.15428765 1.47373995 0 0 Z " fill="#EEEFEC" transform="translate(1939,858)"/>
<path d="M0 0 C0.88300781 0.08378906 1.76601563 0.16757812 2.67578125 0.25390625 C10.27709596 0.89891577 17.43413122 1.00363565 25 0 C24.625 1.9375 24.625 1.9375 24 4 C20.82709287 5.58645357 17.41174616 5.12078213 13.9296875 5.09765625 C12.73534592 5.09553383 12.73534592 5.09553383 11.51687622 5.09336853 C8.9695462 5.08776345 6.42230353 5.07521014 3.875 5.0625 C2.14974085 5.05748565 0.42448033 5.05292263 -1.30078125 5.04882812 C-5.53388791 5.03779237 -9.76692914 5.02052436 -14 5 C-14 4.67 -14 4.34 -14 4 C-6.08 3.67 1.84 3.34 10 3 C4.555 2.505 4.555 2.505 -1 2 C-0.67 1.34 -0.34 0.68 0 0 Z " fill="#F2EBEA" transform="translate(734,762)"/>
<path d="M0 0 C4.77609498 1.64178265 8.79382904 4.26546702 13 7 C13.33 6.34 13.66 5.68 14 5 C16.31 5 18.62 5 21 5 C22.5 9.5 22.5 9.5 24 14 C18.99636809 13.42114847 15.17476838 11.13500022 10.875 8.6875 C10.15957031 8.29626953 9.44414063 7.90503906 8.70703125 7.50195312 C5.02984097 5.42966739 2.20598789 3.73649887 0 0 Z " fill="#DFD9D7" transform="translate(1399,1080)"/>
<path d="M0 0 C2.97 0.495 2.97 0.495 6 1 C6 1.66 6 2.32 6 3 C8.31 3.33 10.62 3.66 13 4 C13.144375 4.763125 13.28875 5.52625 13.4375 6.3125 C13.9632594 9.08172908 13.9632594 9.08172908 15 12 C11.10391502 10.51095825 7.40902982 8.75621287 3.6875 6.875 C2.61886719 6.33617187 1.55023437 5.79734375 0.44921875 5.2421875 C-0.76314453 4.62730469 -0.76314453 4.62730469 -2 4 C-1.34 2.68 -0.68 1.36 0 0 Z " fill="#E8E4E4" transform="translate(1592,771)"/>
<path d="M0 0 C0 1.32 0 2.64 0 4 C-0.66 4 -1.32 4 -2 4 C-2.309375 4.94875 -2.61875 5.8975 -2.9375 6.875 C-4 10 -4 10 -5 12 C-6.65 12 -8.3 12 -10 12 C-9.690625 12.928125 -9.690625 12.928125 -9.375 13.875 C-9.25125 14.57625 -9.1275 15.2775 -9 16 C-9.66 16.66 -10.32 17.32 -11 18 C-13.125 17.625 -13.125 17.625 -15 17 C-14.34 17 -13.68 17 -13 17 C-13 16.01 -13 15.02 -13 14 C-13.66 14 -14.32 14 -15 14 C-13.55746343 10.63408134 -11.66735273 8.48952921 -9 6 C-9 6.66 -9 7.32 -9 8 C-8.34 8.33 -7.68 8.66 -7 9 C-6.731875 8.071875 -6.46375 7.14375 -6.1875 6.1875 C-3.88235294 0 -3.88235294 0 0 0 Z " fill="#F5F6F2" transform="translate(1995,790)"/>
<path d="M0 0 C11.17087953 3.61530283 23.35092772 18.22536022 29.87109375 27.7265625 C30.24363281 28.47679687 30.61617187 29.22703125 31 30 C30.67 30.66 30.34 31.32 30 32 C29.5875 31.443125 29.175 30.88625 28.75 30.3125 C24.9878843 25.34113282 21.04933325 20.89833009 16.50390625 16.62890625 C15 15 15 15 15 13 C14.443125 12.773125 13.88625 12.54625 13.3125 12.3125 C10.35308639 10.63283282 8.37591214 8.43248148 6 6 C4.90585249 5.07139727 3.80168847 4.15445888 2.6875 3.25 C1.800625 2.5075 0.91375 1.765 0 1 C0 0.67 0 0.34 0 0 Z " fill="#C0B5BA" transform="translate(502,787)"/>
<path d="M0 0 C0.99 0.33 1.98 0.66 3 1 C3 1.66 3 2.32 3 3 C15.54 3.33 28.08 3.66 41 4 C41 4.33 41 4.66 41 5 C22.19 5 3.38 5 -16 5 C-16 4.67 -16 4.34 -16 4 C-14.64455078 3.94392578 -14.64455078 3.94392578 -13.26171875 3.88671875 C-12.08222656 3.82097656 -10.90273438 3.75523437 -9.6875 3.6875 C-8.51574219 3.62949219 -7.34398437 3.57148437 -6.13671875 3.51171875 C-2.9016314 2.98395232 -1.91315119 2.57619276 0 0 Z " fill="#FDF2F3" transform="translate(1018,761)"/>
<path d="M0 0 C2 3 2 3 1.8125 5.25 C0.80660001 8.65458459 -0.54040868 11.76351489 -2 15 C-2.99 15 -3.98 15 -5 15 C-5.99 15.495 -5.99 15.495 -7 16 C-7.75 14.25 -7.75 14.25 -8 12 C-6.71034824 10.62437146 -5.37310707 9.29233607 -4 8 C-3.28552357 5.89667109 -3.28552357 5.89667109 -3 4 C-2.67 3.67 -2.34 3.34 -2 3 C-2.33 2.34 -2.66 1.68 -3 1 C-2.01 0.67 -1.02 0.34 0 0 Z " fill="#F4F3F0" transform="translate(637,977)"/>
<path d="M0 0 C2 2 2 2 2 5 C4.49064888 5.68707555 6.37886292 6 9 6 C8.71682074 7.60568666 8.42312209 9.20952047 8.125 10.8125 C7.96257812 11.70582031 7.80015625 12.59914063 7.6328125 13.51953125 C7 16 7 16 5 19 C4.16142312 16.39741676 3.32896656 13.79314353 2.5 11.1875 C2.14228516 10.08051758 2.14228516 10.08051758 1.77734375 8.95117188 C0.80059864 5.86744804 0 3.25504191 0 0 Z " fill="#ECEAE9" transform="translate(1313,961)"/>
<path d="M0 0 C1.1015625 1.75 1.1015625 1.75 2 4 C0.33506086 10.1771655 -3.80027085 14.5335139 -9 18 C-9 16.35 -9 14.7 -9 13 C-8.01 13 -7.02 13 -6 13 C-6 11.35 -6 9.7 -6 8 C-6.66 8 -7.32 8 -8 8 C-7.67 7.34 -7.34 6.68 -7 6 C-6.34 6.33 -5.68 6.66 -5 7 C-5 6.34 -5 5.68 -5 5 C-3.68 4.67 -2.36 4.34 -1 4 C-0.67 2.68 -0.34 1.36 0 0 Z " fill="#F5F4F3" transform="translate(1969,964)"/>
<path d="M0 0 C0 1.65 0 3.3 0 5 C-0.66 5 -1.32 5 -2 5 C-2.33 5.66 -2.66 6.32 -3 7 C-8.22222222 9 -8.22222222 9 -11 9 C-11.33 9.66 -11.66 10.32 -12 11 C-12.33 10.01 -12.66 9.02 -13 8 C-11.02 7.01 -9.04 6.02 -7 5 C-7 4.34 -7 3.68 -7 3 C-5.35 2.67 -3.7 2.34 -2 2 C-2.66 1.67 -3.32 1.34 -4 1 C-2 0 -2 0 0 0 Z M-15 9 C-14.34 9.33 -13.68 9.66 -13 10 C-18.75 15 -18.75 15 -21 15 C-19.98545548 12.4636387 -19.3146444 11.20648539 -17 9.6875 C-16.34 9.460625 -15.68 9.23375 -15 9 Z " fill="#F2F4EE" transform="translate(1610,1010)"/>
<path d="M0 0 C3.79627141 3.54984677 6.67918071 7.22980631 9.375 11.6875 C9.74238281 12.26822266 10.10976563 12.84894531 10.48828125 13.44726562 C11.39379019 14.92512456 12.20561132 16.45955847 13 18 C12.67 18.66 12.34 19.32 12 20 C11.67386719 19.50628906 11.34773437 19.01257813 11.01171875 18.50390625 C10.35623047 17.54291016 10.35623047 17.54291016 9.6875 16.5625 C9.04361328 15.60537109 9.04361328 15.60537109 8.38671875 14.62890625 C6.9965948 12.7114316 6.9965948 12.7114316 4 12 C3.67 12.66 3.34 13.32 3 14 C2.34 14 1.68 14 1 14 C0.67 12.35 0.34 10.7 0 9 C0.66 9 1.32 9 2 9 C1.51421457 5.87709365 1.0013988 3.00419641 0 0 Z " fill="#DFDAD5" transform="translate(614,766)"/>
<path d="M0 0 C0.33 0.66 0.66 1.32 1 2 C-17.11639082 28.05819541 -17.11639082 28.05819541 -21 30 C-19.68586338 26.27334391 -18.10477616 23.63767653 -15.5625 20.625 C-11.88063077 16.14979983 -8.41265018 11.55599548 -5 6.875 C-4.50701416 6.19904785 -4.01402832 5.5230957 -3.50610352 4.82666016 C-2.33566352 3.21903796 -1.1675731 1.60970555 0 0 Z " fill="#C6B8BD" transform="translate(2038,880)"/>
<path d="M0 0 C0 1.66666667 0 3.33333333 0 5 C0.66 5 1.32 5 2 5 C2 5.66 2 6.32 2 7 C1.34 7 0.68 7 0 7 C0 7.66 0 8.32 0 9 C-2.375 11.625 -2.375 11.625 -5 14 C-5.66 14 -6.32 14 -7 14 C-7 14.66 -7 15.32 -7 16 C-8.32 16.33 -9.64 16.66 -11 17 C-9.52869627 12.6426774 -7.16919385 9.28065866 -4.375 5.6875 C-3.95476563 5.13771484 -3.53453125 4.58792969 -3.1015625 4.02148438 C-2.07279961 2.67707832 -1.0370991 1.33798587 0 0 Z " fill="#E4E3E0" transform="translate(2062,693)"/>
<path d="M0 0 C0.8971875 0.5259375 0.8971875 0.5259375 1.8125 1.0625 C4.10813214 2.33304698 4.10813214 2.33304698 7 1 C7.268125 1.598125 7.53625 2.19625 7.8125 2.8125 C8.98493467 4.97224808 10.19369282 6.35790256 12 8 C11.67 8.99 11.34 9.98 11 11 C11 10.34 11 9.68 11 9 C10.34 9 9.68 9 9 9 C9.99 10.32 10.98 11.64 12 13 C11.67 13.66 11.34 14.32 11 15 C9.72719706 13.58510266 8.4568417 12.16800334 7.1875 10.75 C6.47980469 9.96109375 5.77210937 9.1721875 5.04296875 8.359375 C0 2.53537285 0 2.53537285 0 0 Z " fill="#DDD9D9" transform="translate(1346,1030)"/>
<path d="M0 0 C0.33 0.66 0.66 1.32 1 2 C-1.01383844 4.83836286 -3.03736399 7.66968943 -5.0625 10.5 C-5.62388672 11.29148437 -6.18527344 12.08296875 -6.76367188 12.8984375 C-10.567837 18.20253058 -14.6092769 23.1704544 -19 28 C-19 23.9633014 -16.98607852 22.06874608 -14.5625 19.0625 C-13.64900221 17.904227 -12.73625974 16.74535795 -11.82421875 15.5859375 C-11.35677246 14.99522461 -10.88932617 14.40451172 -10.40771484 13.79589844 C-8.18494794 10.96019373 -6.02881679 8.07572154 -3.875 5.1875 C-3.12992188 4.19105469 -2.38484375 3.19460938 -1.6171875 2.16796875 C-1.08351563 1.45253906 -0.54984375 0.73710938 0 0 Z " fill="#C4B6BB" transform="translate(1952,995)"/>
<path d="M0 0 C0 3.37869057 -0.4835044 4.05984188 -2.37890625 6.73046875 C-2.88518555 7.4479126 -3.39146484 8.16535645 -3.91308594 8.90454102 C-4.45739258 9.65791748 -5.00169922 10.41129395 -5.5625 11.1875 C-6.38089355 12.33400024 -6.38089355 12.33400024 -7.21582031 13.50366211 C-10.87624236 18.58149418 -14.65241192 23.48401942 -19 28 C-19 24.20003669 -17.91301202 23.22547843 -15.60546875 20.25390625 C-14.54295898 18.87428711 -14.54295898 18.87428711 -13.45898438 17.46679688 C-12.70939453 16.50837891 -11.95980469 15.54996094 -11.1875 14.5625 C-10.44951172 13.60794922 -9.71152344 12.65339844 -8.95117188 11.66992188 C-7.57387615 9.8887856 -6.19356575 8.10997364 -4.80932617 6.33422852 C-3.18460563 4.23816144 -1.58445462 2.12659354 0 0 Z " fill="#C2B3B9" transform="translate(1979,959)"/>
<path d="M0 0 C0.66 0.33 1.32 0.66 2 1 C1.22398438 1.58265625 0.44796875 2.1653125 -0.3515625 2.765625 C-8.84954414 9.19789436 -16.97066987 15.99389785 -25 23 C-25 20 -25 20 -23.0859375 17.87109375 C-15.77773386 11.31055936 -8.09575846 5.55475398 0 0 Z " fill="#CCC4C4" transform="translate(1395,714)"/>
<path d="M0 0 C4.2964965 0.43649666 8.00497156 0.97481918 11.0625 4.125 C11.371875 4.74375 11.68125 5.3625 12 6 C9.69 6.33 7.38 6.66 5 7 C5 6.34 5 5.68 5 5 C4.34 5 3.68 5 3 5 C3 5.66 3 6.32 3 7 C2.34 7 1.68 7 1 7 C0.34 5.02 -0.32 3.04 -1 1 C-0.67 0.67 -0.34 0.34 0 0 Z " fill="#F7F7F4" transform="translate(500,691)"/>
<path d="M0 0 C3.88349571 3.77661051 7.43737082 7.7429653 10.9375 11.875 C11.68676758 12.75478516 11.68676758 12.75478516 12.45117188 13.65234375 C13.45502338 14.83105971 14.45812425 16.01041537 15.46044922 17.19042969 C17.96504848 20.1343069 20.48252215 23.0671355 23 26 C13.26531674 21.40438045 5.81131159 10.87137421 0 2 C0 1.34 0 0.68 0 0 Z " fill="#CCC4C1" transform="translate(1426,975)"/>
<path d="M0 0 C1.65 1.65 3.3 3.3 5 5 C3.625 7 3.625 7 2 9 C1.34 9 0.68 9 0 9 C0 9.66 0 10.32 0 11 C-1.32 10.34 -2.64 9.68 -4 9 C-3.67 8.34 -3.34 7.68 -3 7 C-2.960008 5.00039988 -2.95653201 2.99952758 -3 1 C-2.01 0.67 -1.02 0.34 0 0 Z " fill="#F5F5F4" transform="translate(1999,920)"/>
<path d="M0 0 C0.33 0.99 0.66 1.98 1 3 C-0.43359375 5.26171875 -0.43359375 5.26171875 -2.4375 7.6875 C-3.09621094 8.49574219 -3.75492188 9.30398438 -4.43359375 10.13671875 C-5.20896484 11.05904297 -5.20896484 11.05904297 -6 12 C-7.32 11.34 -8.64 10.68 -10 10 C-8.66666667 8 -7.33333333 6 -6 4 C-5.67 3.34 -5.34 2.68 -5 2 C-2 0 -2 0 0 0 Z " fill="#F7F6F5" transform="translate(1922,1032)"/>
<path d="M0 0 C4.69765872 1.42822591 7.5548512 4.16429326 10.875 7.625 C11.39803711 8.15899414 11.92107422 8.69298828 12.45996094 9.24316406 C16.46242129 13.35948538 20.3187406 17.59285847 24 22 C23.67 22.66 23.34 23.32 23 24 C19.01011179 20.1033819 15.10721086 16.19450866 11.5 11.9375 C8.44828911 8.37129743 5.10664995 5.34880328 1.50390625 2.34765625 C1.00761719 1.90292969 0.51132813 1.45820312 0 1 C0 0.67 0 0.34 0 0 Z " fill="#C4B8BB" transform="translate(1677,723)"/>
<path d="M0 0 C2.31 0.33 4.62 0.66 7 1 C6.95875 1.928125 6.9175 2.85625 6.875 3.8125 C6.72863661 7.15809719 6.72863661 7.15809719 9 10 C8.34 10.66 7.68 11.32 7 12 C6.01 11.67 5.02 11.34 4 11 C2.57833702 8.07769276 1.75945395 5.14630924 1 2 C0.67 1.34 0.34 0.68 0 0 Z " fill="#F5F6F3" transform="translate(536,820)"/>
<path d="M0 0 C0 4.14189612 -1.65612382 5.05333312 -4.5 8 C-9.54145492 13.32997737 -13.81910248 18.96222342 -18 25 C-18 16.18581475 -5.96719302 5.96719302 0 0 Z " fill="#C7BABE" transform="translate(1443,795)"/>
<path d="M0 0 C1 2 1 2 0.375 4.5 C-1.37981225 7.69056773 -2.63637077 7.7768621 -6 9 C-8.11290275 10.56106226 -10.02821359 12.25749108 -12 14 C-10.52493771 10.79302377 -8.71194552 8.1090904 -6.5625 5.3125 C-5.96566406 4.52488281 -5.36882812 3.73726562 -4.75390625 2.92578125 C-3 1 -3 1 0 0 Z " fill="#EBE7E6" transform="translate(1924,881)"/>
<path d="M0 0 C0.33 0.66 0.66 1.32 1 2 C-3.69576257 8.63505153 -8.50374569 15.00564764 -14 21 C-14 16.83444364 -11.74522819 14.73702617 -9.25 11.625 C-8.8065625 11.06039063 -8.363125 10.49578125 -7.90625 9.9140625 C-6.61201254 8.2696196 -5.30800989 6.63350079 -4 5 C-3.23171875 4.03835938 -2.4634375 3.07671875 -1.671875 2.0859375 C-1.12015625 1.39757813 -0.5684375 0.70921875 0 0 Z " fill="#C5B3B8" transform="translate(1888,1080)"/>
<path d="M0 0 C0.33 0.66 0.66 1.32 1 2 C4.02934491 2.65772428 4.02934491 2.65772428 7 3 C7 3.99 7 4.98 7 6 C7.66 6.33 8.32 6.66 9 7 C8.67 7.99 8.34 8.98 8 10 C4.70195229 9.43137108 3.19980011 8.49977286 1 6 C0.34 5.34 -0.32 4.68 -1 4 C-0.625 1.875 -0.625 1.875 0 0 Z " fill="#EDEDEB" transform="translate(495,777)"/>
<path d="M0 0 C8.57142857 0.85714286 8.57142857 0.85714286 12 3 C9.32521756 4.6627026 7.0004856 5.99983813 4 7 C3.67 5.68 3.34 4.36 3 3 C1.68 3.33 0.36 3.66 -1 4 C-0.67 2.68 -0.34 1.36 0 0 Z " fill="#EBE8E7" transform="translate(488,687)"/>
<path d="M0 0 C2.375 -0.1875 2.375 -0.1875 5 0 C5.66 0.99 6.32 1.98 7 3 C5.06441401 3.67220351 3.12645628 4.33758077 1.1875 5 C0.10855469 5.37125 -0.97039062 5.7425 -2.08203125 6.125 C-5 7 -5 7 -8 7 C-8 6.34 -8 5.68 -8 5 C-5.35261084 3.5393715 -4.10551666 3 -1 3 C-0.67 2.01 -0.34 1.02 0 0 Z " fill="#EBE2E3" transform="translate(1622,1098)"/>
<path d="M0 0 C-1.98 0.99 -1.98 0.99 -4 2 C-4 2.66 -4 3.32 -4 4 C-4.99 4 -5.98 4 -7 4 C-7.33 4.99 -7.66 5.98 -8 7 C-9.87617698 8.84499398 -11.92737609 10.3683599 -14 12 C-14.66 11.67 -15.32 11.34 -16 11 C-15.525625 10.566875 -15.05125 10.13375 -14.5625 9.6875 C-12.76313043 7.97690387 -12.76313043 7.97690387 -12 5 C-11.01 5 -10.02 5 -9 5 C-9 4.34 -9 3.68 -9 3 C-7.68 3 -6.36 3 -5 3 C-5 2.34 -5 1.68 -5 1 C-5.66 0.67 -6.32 0.34 -7 0 C-3.86650268 -1.04449911 -3.01031744 -0.93423645 0 0 Z " fill="#F2F1F0" transform="translate(1453,785)"/>
<path d="M0 0 C-0.66 0.66 -1.32 1.32 -2 2 C-2 2.99 -2 3.98 -2 5 C-3.98 5.99 -5.96 6.98 -8 8 C-8 7.01 -8 6.02 -8 5 C-8.66 5 -9.32 5 -10 5 C-9.01906046 2.54765115 -8.31296172 1.2190732 -6.125 -0.3125 C-3.64990694 -1.1132654 -2.41712366 -0.86325845 0 0 Z " fill="#F1F1EE" transform="translate(1904,914)"/>
<path d="M0 0 C0.66 0 1.32 0 2 0 C2.8125 1.6875 2.8125 1.6875 3 4 C0.625 6.5625 0.625 6.5625 -2 9 C-2.33 9.99 -2.66 10.98 -3 12 C-4.32 11.34 -5.64 10.68 -7 10 C-5.625 8 -5.625 8 -4 6 C-3.34 6 -2.68 6 -2 6 C-1.855625 5.38125 -1.71125 4.7625 -1.5625 4.125 C-1 2 -1 2 0 0 Z " fill="#F3F6F2" transform="translate(1893,923)"/>
<path d="M0 0 C-3.70416126 2.37590142 -6.92984573 2.20500286 -11.25 2.125 C-12.51328125 2.10695313 -13.7765625 2.08890625 -15.078125 2.0703125 C-16.04234375 2.04710937 -17.0065625 2.02390625 -18 2 C-18 1.34 -18 0.68 -18 0 C-11.67370431 -0.90375653 -6.32629569 -0.90375653 0 0 Z " fill="#F3F4EF" transform="translate(1522,678)"/>
<path d="M0 0 C1.17353189 3.52059568 1.20146402 6.306493 1 10 C0.34 10.66 -0.32 11.32 -1 12 C-3.125 11.625 -3.125 11.625 -5 11 C-4.34 11 -3.68 11 -3 11 C-3 10.01 -3 9.02 -3 8 C-3.66 8 -4.32 8 -5 8 C-3.62845496 5.04590299 -2.01136276 2.55991624 0 0 Z " fill="#EBEAE6" transform="translate(1985,796)"/>
<path d="M0 0 C0.66 0.66 1.32 1.32 2 2 C1.80688882 4.8966677 0.97235629 6.03210237 -0.9375 8.25 C-3 10 -3 10 -5 10 C-5 9.01 -5 8.02 -5 7 C-4.34 6.67 -3.68 6.34 -3 6 C-3.33 5.34 -3.66 4.68 -4 4 C-2 1 -2 1 0 0 Z " fill="#F5F5F2" transform="translate(1878,1087)"/>
<path d="M0 0 C1 3 1 3 1 5 C0.01 5.495 0.01 5.495 -1 6 C-0.67 6.99 -0.34 7.98 0 9 C-0.5775 9.12375 -1.155 9.2475 -1.75 9.375 C-4.02335767 10.00648824 -5.9253529 10.88858191 -8 12 C-6.59023295 8.96147295 -4.91129772 6.4060405 -2.875 3.75 C-2.06675781 2.69039062 -2.06675781 2.69039062 -1.2421875 1.609375 C-0.83226562 1.07828125 -0.42234375 0.5471875 0 0 Z " fill="#E3E0DF" transform="translate(2009,764)"/>
<path d="M0 0 C1.33855096 4.01565287 0.23071006 5.67187183 -1.3125 9.5625 C-1.76238281 10.71878906 -2.21226562 11.87507812 -2.67578125 13.06640625 C-4 16 -4 16 -6 18 C-5.41347648 13.51006131 -4.2356462 9.77456816 -2.4375 5.625 C-1.98246094 4.56539062 -1.52742187 3.50578125 -1.05859375 2.4140625 C-0.70925781 1.61742187 -0.35992188 0.82078125 0 0 Z " fill="#BFB2B3" transform="translate(547,940)"/>
<path d="M0 0 C0.99 0 1.98 0 3 0 C4.36884358 4.51718381 3.47075246 7.58774263 2 12 C1.34 12 0.68 12 0 12 C0 8.04 0 4.08 0 0 Z " fill="#F7F7F5" transform="translate(1399,890)"/>
<path d="M0 0 C0.78375 0.04125 1.5675 0.0825 2.375 0.125 C2.125 2 2.125 2 1.375 4.125 C-0.77168494 5.50995802 -2.06371412 6.125 -4.625 6.125 C-5.615 6.62 -5.615 6.62 -6.625 7.125 C-4.07142857 0.19387755 -4.07142857 0.19387755 0 0 Z " fill="#EBEAE6" transform="translate(2024.625,746.875)"/>
<path d="M0 0 C0.99 0.66 1.98 1.32 3 2 C2.34 3.32 1.68 4.64 1 6 C0.01 5.34 -0.98 4.68 -2 4 C-4.31 5.98 -6.62 7.96 -9 10 C-6.84689406 5.69378811 -4.40056653 2.20028327 0 0 Z " fill="#ECEAE8" transform="translate(2046,718)"/>
<path d="M0 0 C1.89600369 0.31146472 3.79179587 0.62421717 5.6875 0.9375 C6.74324219 1.11152344 7.79898437 1.28554687 8.88671875 1.46484375 C11.60249604 1.93167121 14.30124235 2.44422616 17 3 C17 3.33 17 3.66 17 4 C16.39671875 3.98839844 15.7934375 3.97679687 15.171875 3.96484375 C14.37265625 3.95582031 13.5734375 3.94679688 12.75 3.9375 C11.96109375 3.92589844 11.1721875 3.91429687 10.359375 3.90234375 C8.09308998 3.99614694 6.1711105 4.36758937 4 5 C2.68 3.35 1.36 1.7 0 0 Z " fill="#E8E1DE" transform="translate(1493,1025)"/>
<path d="M0 0 C0.66 0 1.32 0 2 0 C2 2.97 2 5.94 2 9 C1.01 9.495 1.01 9.495 0 10 C-0.99 9.34 -1.98 8.68 -3 8 C-2.25 2.25 -2.25 2.25 0 0 Z " fill="#F5F6F2" transform="translate(552,931)"/>
<path d="M0 0 C0.66 0 1.32 0 2 0 C4 6.625 4 6.625 4 10 C2.68 9.34 1.36 8.68 0 8 C0 7.34 0 6.68 0 6 C-0.66 6 -1.32 6 -2 6 C-2 5.34 -2 4.68 -2 4 C-1.34 4 -0.68 4 0 4 C0 2.68 0 1.36 0 0 Z " fill="#F0F0EE" transform="translate(1325,986)"/>
<path d="M0 0 C0.66 0 1.32 0 2 0 C1.01 2.97 0.02 5.94 -1 9 C-1.66 7.68 -2.32 6.36 -3 5 C-2.01 4.67 -1.02 4.34 0 4 C-0.33 3.01 -0.66 2.02 -1 1 C-0.67 0.67 -0.34 0.34 0 0 Z M-5 5 C-4.34 5.33 -3.68 5.66 -3 6 C-3.66 7.32 -4.32 8.64 -5 10 C-5.66 8.68 -6.32 7.36 -7 6 C-6.34 5.67 -5.68 5.34 -5 5 Z " fill="#EFEBE8" transform="translate(636,983)"/>
<path d="M0 0 C0.66 0 1.32 0 2 0 C3.625 2 3.625 2 5 4 C3 6 3 6 -0.125 6.125 C-1.548125 6.063125 -1.548125 6.063125 -3 6 C-1.125 1.125 -1.125 1.125 0 0 Z " fill="#F5F6F2" transform="translate(1674,724)"/>
<path d="M0 0 C2 2 2 2 2 5 C3.32 5.33 4.64 5.66 6 6 C6 7.32 6 8.64 6 10 C5.34 10 4.68 10 4 10 C3.67 10.99 3.34 11.98 3 13 C2.49487756 11.39743892 1.99608373 9.79288208 1.5 8.1875 C1.2215625 7.29417969 0.943125 6.40085937 0.65625 5.48046875 C0 3 0 3 0 0 Z " fill="#E7E1DF" transform="translate(1313,961)"/>
<path d="M0 0 C-1.98 2.31 -3.96 4.62 -6 7 C-6.66 6.67 -7.32 6.34 -8 6 C-7.1875 3.0625 -7.1875 3.0625 -6 0 C-3 -1 -3 -1 0 0 Z " fill="#F5F2F2" transform="translate(1698,751)"/>
<path d="M0 0 C0.33 0.66 0.66 1.32 1 2 C-1.14327284 5.21490927 -2.69521128 6.14609413 -6 8 C-6.99 8.66 -7.98 9.32 -9 10 C-7.46990911 6.55729549 -5.5068778 3.81074178 -3 1 C-2.01 0.67 -1.02 0.34 0 0 Z " fill="#E5E1DF" transform="translate(1896,918)"/>
<path d="M0 0 C0.99 0.66 1.98 1.32 3 2 C-1.95 2 -6.9 2 -12 2 C-7.26994448 -0.36502776 -5.06180919 -1.39199753 0 0 Z " fill="#F8F7F6" transform="translate(885,856)"/>
<path d="M0 0 C1.65 0.33 3.3 0.66 5 1 C5.33 1.99 5.66 2.98 6 4 C2.625 4.625 2.625 4.625 -1 5 C-1.66 4.34 -2.32 3.68 -3 3 C-2.34 3 -1.68 3 -1 3 C-0.67 2.01 -0.34 1.02 0 0 Z " fill="#F2F2F2" transform="translate(1497,759)"/>
<path d="M0 0 C0.66 0 1.32 0 2 0 C2.66 2.31 3.32 4.62 4 7 C3.01 7.99 2.02 8.98 1 10 C1 9.34 1 8.68 1 8 C0.01 7.67 -0.98 7.34 -2 7 C-1.34 6.67 -0.68 6.34 0 6 C0 4.02 0 2.04 0 0 Z " fill="#EDE8E8" transform="translate(1955,981)"/>
<path d="M0 0 C0 1.32 0 2.64 0 4 C-2 5.75 -2 5.75 -4 7 C-4.66 6.67 -5.32 6.34 -6 6 C-6 4.35 -6 2.7 -6 1 C-4 0 -4 0 0 0 Z " fill="#F4F2F1" transform="translate(653,870)"/>
<path d="M0 0 C1.32 0 2.64 0 4 0 C4.25 2.25 4.25 2.25 4 5 C2 7.3125 2 7.3125 0 9 C-1.125 3.375 -1.125 3.375 0 0 Z " fill="#F3F4F5" transform="translate(2046,861)"/>
<path d="M0 0 C1.2065625 0.0309375 1.2065625 0.0309375 2.4375 0.0625 C1.7775 1.3825 1.1175 2.7025 0.4375 4.0625 C-0.2225 4.0625 -0.8825 4.0625 -1.5625 4.0625 C-1.5625 6.0425 -1.5625 8.0225 -1.5625 10.0625 C-2.2225 9.7325 -2.8825 9.4025 -3.5625 9.0625 C-3.66015625 2.91015625 -3.66015625 2.91015625 -3.5625 1.0625 C-2.5625 0.0625 -2.5625 0.0625 0 0 Z " fill="#F6F5F5" transform="translate(1410.5625,837.9375)"/>
<path d="M0 0 C0.66 0.33 1.32 0.66 2 1 C1.67 1.66 1.34 2.32 1 3 C0.34 3 -0.32 3 -1 3 C-1 3.66 -1 4.32 -1 5 C-1.66 5 -2.32 5 -3 5 C-3 5.66 -3 6.32 -3 7 C-2.34 7 -1.68 7 -1 7 C-1.33 7.66 -1.66 8.32 -2 9 C-4.5625 9.625 -4.5625 9.625 -7 10 C-6.67 8.68 -6.34 7.36 -6 6 C-5.34 6 -4.68 6 -4 6 C-4 5.34 -4 4.68 -4 4 C-3.34 4 -2.68 4 -2 4 C-1.34 2.68 -0.68 1.36 0 0 Z " fill="#F2F4EF" transform="translate(2059,703)"/>
<path d="M0 0 C-0.5625 1.9375 -0.5625 1.9375 -2 4 C-5.625 4.75 -5.625 4.75 -9 5 C-5.34782609 -1.7826087 -5.34782609 -1.7826087 0 0 Z " fill="#F5F3F2" transform="translate(1911,903)"/>
<path d="M0 0 C0.99 0.33 1.98 0.66 3 1 C3.6875 3.0625 3.6875 3.0625 4 5 C2.35 5.33 0.7 5.66 -1 6 C-1.66 4.68 -2.32 3.36 -3 2 C-2.34 1.67 -1.68 1.34 -1 1 C-0.67 0.67 -0.34 0.34 0 0 Z " fill="#EAE8E7" transform="translate(1346,1024)"/>
<path d="M0 0 C0.66 0.66 1.32 1.32 2 2 C1.34 3.32 0.68 4.64 0 6 C0.66 6.33 1.32 6.66 2 7 C1.01 7.33 0.02 7.66 -1 8 C-1 8.66 -1 9.32 -1 10 C-1.99 9.67 -2.98 9.34 -4 9 C-2.68 6.03 -1.36 3.06 0 0 Z " fill="#F3F5F3" transform="translate(1317,826)"/>
<path d="M0 0 C0.66 0.33 1.32 0.66 2 1 C2 1.99 2 2.98 2 4 C-0.25 5.5 -0.25 5.5 -3 7 C-4.34631825 7.98244845 -5.68441297 8.97676564 -7 10 C-5.33248852 6.05860922 -2.77289351 3.2107188 0 0 Z " fill="#E7E4DF" transform="translate(2017,754)"/>
<path d="M0 0 C3 2 3 2 4 4 C1.03 4 -1.94 4 -5 4 C-5 3.34 -5 2.68 -5 2 C-2.6875 0.875 -2.6875 0.875 0 0 Z " fill="#FAF6F1" transform="translate(454,1105)"/>
<path d="M0 0 C1.32 0.33 2.64 0.66 4 1 C2.35 2.98 0.7 4.96 -1 7 C-1.66 6.67 -2.32 6.34 -3 6 C-2.01 4.02 -1.02 2.04 0 0 Z " fill="#F4EFEF" transform="translate(1680,1068)"/>
<path d="M0 0 C0.928125 0.5259375 0.928125 0.5259375 1.875 1.0625 C2.57625 1.371875 3.2775 1.68125 4 2 C4.66 1.67 5.32 1.34 6 1 C5.3125 2.9375 5.3125 2.9375 4 5 C1.375 5.75 1.375 5.75 -1 6 C-1 5.34 -1 4.68 -1 4 C-0.34 4 0.32 4 1 4 C0.67 2.68 0.34 1.36 0 0 Z " fill="#E6DFE0" transform="translate(1977,954)"/>
<path d="M0 0 C0 0.66 0 1.32 0 2 C-2.64 2 -5.28 2 -8 2 C-8 1.34 -8 0.68 -8 0 C-5.13822943 -1.43088528 -3.06624227 -0.59991697 0 0 Z " fill="#F9F8F6" transform="translate(1025,856)"/>
<path d="M0 0 C-0.99 0.66 -1.98 1.32 -3 2 C-2.67 2.66 -2.34 3.32 -2 4 C-3.65 4.33 -5.3 4.66 -7 5 C-7.33 4.34 -7.66 3.68 -8 3 C-7.34 2.67 -6.68 2.34 -6 2 C-6.33 1.34 -6.66 0.68 -7 0 C-3.86650268 -1.04449911 -3.01031744 -0.93423645 0 0 Z " fill="#EBE6E7" transform="translate(1462,685)"/>
<path d="M0 0 C0.66 0.66 1.32 1.32 2 2 C2.99 2 3.98 2 5 2 C4.01 3.32 3.02 4.64 2 6 C0.68 5.34 -0.64 4.68 -2 4 C-1.34 4 -0.68 4 0 4 C0 2.68 0 1.36 0 0 Z " fill="#F3F4F0" transform="translate(1925,1021)"/>
<path d="M0 0 C0 0.99 0 1.98 0 3 C-0.66 3 -1.32 3 -2 3 C-2.33 3.99 -2.66 4.98 -3 6 C-3.66 5.67 -4.32 5.34 -5 5 C-4.625 3.0625 -4.625 3.0625 -4 1 C-2 0 -2 0 0 0 Z " fill="#F7F7F2" transform="translate(1659,1081)"/>
<path d="M0 0 C2.31 0.33 4.62 0.66 7 1 C7 1.66 7 2.32 7 3 C6.34 3 5.68 3 5 3 C4.67 3.66 4.34 4.32 4 5 C2.68 4.34 1.36 3.68 0 3 C0 2.01 0 1.02 0 0 Z " fill="#F5F5F3" transform="translate(1598,771)"/>
<path d="M0 0 C0.66 0.33 1.32 0.66 2 1 C1.34 2.65 0.68 4.3 0 6 C-0.99 5.67 -1.98 5.34 -3 5 C-2.625 3.0625 -2.625 3.0625 -2 1 C-1.34 0.67 -0.68 0.34 0 0 Z " fill="#F5F5F1" transform="translate(1438,692)"/>
</svg>
