<svg xmlns="http://www.w3.org/2000/svg" width="173" height="214"><path fill="#fefefe" d="m22.903 90.76 3.736-.009 4.104.022h4.316c3.91-.002 7.818.01 11.727.024 4.084.013 8.168.014 12.252.016q11.602.011 23.204.043c8.805.022 17.61.033 26.416.043q27.171.032 54.342.101c1.015 6.78 1.186 13.397 1.185 20.236.003 2.089.02 4.177.04 6.266l.005 3.986.013 3.642C164 128 164 128 162 130c-2.542.246-2.542.246-5.821.24l-3.757.009-4.143-.022h-4.346c-3.94.002-7.88-.01-11.82-.024-4.114-.013-8.229-.014-12.343-.016q-11.693-.011-23.385-.043c-8.873-.022-17.746-.033-26.619-.043Q42.384 130.069 15 130c-1.348-6.283-1.223-12.541-1.24-18.94a691 691 0 0 0-.073-6.753l-.015-4.287-.028-3.935L14 93c3.479-2.32 4.799-2.248 8.903-2.24M14 165h150c.883 4.415 1.115 8.02 1.098 12.488l-.005 2.131c-.005 2.231-.018 4.462-.03 6.694q-.008 2.277-.014 4.556-.017 5.565-.049 11.131c-3.393 1.03-6.487 1.123-10.024 1.12l-3.739.004-4.093-.01h-4.317q-5.858-.001-11.714-.013-6.122-.007-12.244-.008-11.591-.004-23.183-.021-13.197-.015-26.394-.022Q42.146 203.034 15 203c-2.485-12.425-1-25.329-1-38"/><path fill="#fefdfd" d="m19.302 17.873 2.817-.009 3.12.007 3.268-.006q5.403-.004 10.806.002l7.56-.003q7.976-.002 15.95.006 10.074.007 20.148-.004c27.033-.02 54.014.091 81.029 1.134v37H14c0-38.125 0-38.125 5.302-38.127"/><path fill="#efe9e6" d="m22.903 90.76 3.736-.009 4.104.022h4.316c3.91-.002 7.818.01 11.727.024 4.084.013 8.168.014 12.252.016q11.602.011 23.204.043c8.805.022 17.61.033 26.416.043q27.171.032 54.342.101c1.015 6.78 1.186 13.397 1.185 20.236.003 2.089.02 4.177.04 6.266l.005 3.986.013 3.642C164 128 164 128 162 130c-2.542.246-2.542.246-5.821.24l-3.757.009-4.143-.022h-4.346c-3.94.002-7.88-.01-11.82-.024-4.114-.013-8.229-.014-12.343-.016q-11.693-.011-23.385-.043c-8.873-.022-17.746-.033-26.619-.043Q42.384 130.069 15 130c-1.348-6.283-1.223-12.541-1.24-18.94a691 691 0 0 0-.073-6.753l-.015-4.287-.028-3.935L14 93c3.479-2.32 4.799-2.248 8.903-2.24M16 93v35h146V93z"/><path fill="#fdf5f4" d="M14 170h2v31h144l-1 2H15c-.83-4.153-1.117-7.432-1.098-11.613l.01-3.78.025-3.92.014-3.978q.018-4.855.049-9.709"/><path fill="#faf2ee" d="M14 170h2v31h5l-1 2h-5c-.93-3.933-1.116-7.577-1.098-11.613l.01-3.78.025-3.92.014-3.978q.018-4.855.049-9.709"/><path fill="#f7e9e5" d="M14 197h2v4h5l-1 2h-5c-1-4.875-1-4.875-1-6"/></svg>